<svg aria-hidden="true" style="width:0;height:0;position:absolute;overflow:hidden" xmlns="http://www.w3.org/2000/svg"><defs><symbol id="icon-chat" viewBox="0 0 32 32"><path fill="none" stroke="#fff" style="stroke:var(--color1,#fff)" stroke-width=".79" d="M28.444 16c0 6.873-5.572 12.444-12.444 12.444S3.556 22.872 3.556 16C3.556 9.127 9.128 3.556 16 3.556S28.444 9.128 28.444 16z"/><path fill="#b8e2ed" style="fill:var(--color2,#b8e2ed);stroke:var(--color2,#b8e2ed)" opacity=".12" stroke="#b8e2ed" stroke-width=".79" d="M28.444 16c0 6.873-5.572 12.444-12.444 12.444S3.556 22.872 3.556 16C3.556 9.127 9.128 3.556 16 3.556S28.444 9.128 28.444 16z"/><path fill="#b8e2ed" style="fill:var(--color2,#b8e2ed)" d="M14.091 8.296a6.592 6.592 0 0 0-5.555 3.047 6.58 6.58 0 0 0-.411 6.323c-.221.914-.42 1.834-.598 2.758a.875.875 0 0 0 1.012 1.026 61.7 61.7 0 0 0 2.84-.57 6.57 6.57 0 0 0 5.672-.125 6.59 6.59 0 0 0 3.469-4.49 6.581 6.581 0 0 0-3.594-7.325 6.586 6.586 0 0 0-2.837-.645zm-.033 14.044a6.56 6.56 0 0 0 4.476 1.756c.965 0 1.883-.208 2.71-.582.915.214 1.919.428 2.557.562a1.094 1.094 0 0 0 1.288-1.317 135.53 135.53 0 0 0-.589-2.46 6.593 6.593 0 0 0 .097-5.353 6.58 6.58 0 0 0-3.91-3.657c.311.566.548 1.17.702 1.798a5.261 5.261 0 0 1 1.827 6.836l-.114.222.061.242c.2.786.41 1.668.564 2.326a98.16 98.16 0 0 1-2.405-.535l-.232-.054-.213.106a5.248 5.248 0 0 1-2.344.549 5.237 5.237 0 0 1-2.563-.664 7.483 7.483 0 0 1-1.913.225z"/></symbol><symbol id="icon-mail" viewBox="0 0 38 32"><path fill="#b8e2ed" style="fill:var(--color2,#b8e2ed)" d="M38.095 8.698v16.169a6.876 6.876 0 0 1-6.489 6.867l-.39.011H6.877A6.876 6.876 0 0 1 .01 25.256l-.011-.39V8.697l18.307 9.638a1.581 1.581 0 0 0 1.482 0l18.307-9.638zM6.878 0h24.339c1.536 0 3.027.514 4.238 1.459s2.069 2.269 2.44 3.76l-18.847 9.917L.201 5.219A6.884 6.884 0 0 1 6.478.013l.4-.013z"/></symbol></defs></svg>