<svg width="116" height="243" fill="none" xmlns="http://www.w3.org/2000/svg"><path d="M-22.304 162.549c3.724-4.075 7.558-7.661 12.63-9.219 7.027-2.161 1.563 14.354.319 17.399-2.681 6.561-6.695 11.253-8.851 10.248-.913-.427-1.214-1.84-.893-3.784-1.884 1.893-3.68 2.724-4.718 2.068-1.041-.658-1.06-2.632-.154-5.146-1.62 1.122-3.025 1.46-3.804.817-1.83-1.511.688-7.147 5.471-12.383Z" fill="#9B4F1C"/><path d="m-23.99 179.533.002.001c1.053.665 2.65.127 4.455-1.476-.117 1.665.29 2.793 1.194 3.211.487.226 1.05.224 1.67-.01 2.38-.891 5.439-5.072 7.617-10.402.057-.137 5.363-14.006 2.244-17.336-.682-.729-1.68-.896-2.972-.499-4.925 1.513-8.666 4.816-12.77 9.308-3.884 4.252-6.352 8.807-6.138 11.336.055.661.293 1.172.708 1.513.765.631 1.96.519 3.415-.3-.674 2.315-.477 3.989.576 4.654Zm.345-.54c-.857-.541-.863-2.41-.018-4.76l.347-.969-.849.589c-1.504 1.042-2.776 1.353-3.405.837-.27-.223-.427-.58-.468-1.058-.195-2.328 2.261-6.793 5.977-10.859 4.033-4.415 7.702-7.659 12.49-9.13 1.042-.321 1.788-.217 2.287.313 2.324 2.481-.978 13.225-2.376 16.651-2.083 5.098-5.066 9.23-7.254 10.052-.451.17-.841.179-1.16.031-.735-.344-1-1.627-.703-3.433l.168-1.02-.727.73c-1.76 1.772-3.452 2.568-4.31 2.026Z" fill="#281400"/><path d="M-20.173 161.235c3.19-3.491 6.475-6.562 10.82-7.898 6.02-1.85 1.34 12.296.274 14.906-2.297 5.62-5.737 9.64-7.58 8.778-.784-.366-1.039-1.576-.766-3.24-1.614 1.622-3.15 2.334-4.043 1.771-.891-.564-.907-2.255-.132-4.409-1.387.96-2.591 1.249-3.258.699-1.57-1.294.588-6.121 4.685-10.607Z" fill="#7A421C"/><path d="M-19.537 197.416c1.108.054 2.112-.43 2.675-1.286l.457-.697c.096.082.2.161.31.231 1.157.731 2.65.564 3.796-.299.076 1.017.566 1.944 1.427 2.489.125.079.254.145.386.202l-.698 1.855c-.338.903-.183 1.945.397 2.819 4.068 6.119 7.038 13.898 4.182 12.878-3.074-1.098-4.49-10.03-6.502-9.085-1.45.683-2.849 11.211-5.495 8.692s2.276-9.56-.706-12.292c-2.982-2.731-14.345 1.085-12.388-2.755 1.49-2.92 8.764-2.92 12.159-2.752Z" fill="#9B4F1C"/><path d="M-18.491 215.707c.316.201.638.265.96.19 1.333-.306 2.215-2.988 3.068-5.586.484-1.471 1.086-3.3 1.504-3.495.1-.047.19-.052.288-.015.639.243 1.365 1.903 2.069 3.509 1.029 2.34 2.196 4.993 3.893 5.601.718.258 1.099.02 1.29-.224 1.164-1.472-1.752-8.101-5.096-13.129-.526-.789-.661-1.734-.363-2.526l.803-2.143-.287-.127a2.389 2.389 0 0 1-.341-.178c-.738-.467-1.202-1.28-1.273-2.234l-.045-.607-.482.363c-1.074.811-2.418.923-3.423.288a2.868 2.868 0 0 1-.277-.204l-.284-.238-.655.997c-.503.765-1.396 1.194-2.392 1.145-3.995-.198-10.927-.081-12.459 2.923-.315.618-.341 1.13-.08 1.521.63.941 2.707.841 5.337.717 2.773-.131 5.918-.282 7.204.902 1.395 1.276.856 3.739.334 6.121-.517 2.366-1.051 4.814.368 6.165.117.106.227.194.339.264Zm6.27-9.392a1.404 1.404 0 0 0-.227-.115 1.008 1.008 0 0 0-.803.031c-.632.297-1.086 1.597-1.833 3.865-.687 2.087-1.626 4.945-2.61 5.172-.076.017-.314.072-.684-.283-1.151-1.095-.678-3.263-.177-5.556.559-2.561 1.138-5.208-.535-6.739-1.492-1.369-4.787-1.216-7.69-1.078-2.13.1-4.329.204-4.747-.42-.12-.182-.08-.473.124-.873 1.42-2.789 8.765-2.733 11.857-2.581 1.227.06 2.332-.473 2.957-1.429l.27-.409.052.032c1.101.696 2.513.679 3.719-.014.202.929.731 1.716 1.504 2.204.046.03.096.058.147.088l-.594 1.582c-.37.983-.207 2.145.432 3.109 3.668 5.516 5.882 11.417 5.122 12.379-.035.043-.138.176-.566.023-1.426-.507-2.53-3.02-3.503-5.239-.786-1.797-1.425-3.249-2.214-3.749Z" fill="#281400"/><path d="M-10.313 163.649c12.522 6.289 28.236 3.87 41.745-5.287-2.18 18.484-22.33 33.548-31.073 37.827a3.171 3.171 0 0 0-1.392 1.357c-.039.07-.078.14-.122.209-.974 1.539-2.86 2.091-4.218 1.233-.67-.423-1.082-1.109-1.215-1.88-1.067 1.062-2.589 1.426-3.837.874a2.636 2.636 0 0 1-.386-.202c-.863-.545-1.354-1.473-1.43-2.491-1.147.864-2.642 1.032-3.8.3a2.902 2.902 0 0 1-.312-.231c-.956-.796-1.327-2.13-1.023-3.437-.67.176-1.372.101-1.964-.273-1.226-.775-1.509-2.531-.628-3.924l.003-.004c.177-.28.285-.596.281-.937-.067-7.331 9.272-23.017 9.272-23.017l.099-.117Z" fill="#E8B17E"/><path d="M-10.242 163.964c.793.394 1.533.777 2.359 1.12l1.324.474.663.237.331.117.34.092 1.358.365c.453.123.904.253 1.367.327l1.378.261.69.128.696.077c3.707.474 7.463.356 11.116-.235 3.655-.591 7.21-1.654 10.598-3.07 3.39-1.417 6.61-3.188 9.641-5.227l-.514-.312-.002.002c-.678 4.919-2.603 9.563-5.173 13.766-2.592 4.201-5.782 8.027-9.335 11.482-3.569 3.438-7.43 6.601-11.592 9.324a64.66 64.66 0 0 1-3.171 1.957l-.814.452-.822.43a3.643 3.643 0 0 0-1.544 1.426c-.096.165-.152.275-.227.393-.077.114-.153.23-.243.333a3.023 3.023 0 0 1-.599.566 2.737 2.737 0 0 1-1.526.543 2.392 2.392 0 0 1-.802-.115c-.255-.09-.5-.221-.707-.397-.422-.348-.706-.861-.815-1.417l-.135-.6-.422.415c-.41.403-.91.719-1.457.891a2.952 2.952 0 0 1-1.686.037 2.994 2.994 0 0 1-.767-.358 2.584 2.584 0 0 1-.608-.587 3.047 3.047 0 0 1-.576-1.59l-.045-.604-.484.362a3.44 3.44 0 0 1-1.707.684 2.675 2.675 0 0 1-1.757-.421 2.7 2.7 0 0 1-1.084-1.445 3.413 3.413 0 0 1-.067-1.836l.002-.007.108-.544-.519.153c-.579.171-1.228.118-1.74-.21-.52-.318-.873-.88-.98-1.493-.116-.614-.003-1.264.275-1.83l.115-.209c.04-.07.094-.156.132-.238a1.788 1.788 0 0 0 .19-.821l.005-.252.011-.498c.09-1.332.372-2.65.725-3.945a39.7 39.7 0 0 1 1.28-3.824c.97-2.509 2.095-4.959 3.29-7.369 1.204-2.406 2.523-4.763 4.027-6.991l-.027.039c-.001.01-.04.016-.074-.008Zm-.144-.632a.9.9 0 0 0-.273.235l-.022.03-.005.008-3.667 7.221c-1.214 2.407-2.356 4.853-3.348 7.367a50.549 50.549 0 0 0-1.338 3.831c-.383 1.299-.697 2.629-.817 4l-.021.518-.01.256a1.47 1.47 0 0 1-.164.644c-.034.07-.072.126-.118.202l-.136.229a3.412 3.412 0 0 0-.382 2.105c.104.731.515 1.459 1.175 1.892.65.445 1.496.553 2.229.367l-.41-.393-.002.009a4.062 4.062 0 0 0 .084 2.181 3.4 3.4 0 0 0 1.353 1.794 3.36 3.36 0 0 0 2.186.529 4.07 4.07 0 0 0 2.032-.807l-.529-.243c.052.68.279 1.362.706 1.932.214.283.47.537.766.737.298.191.622.356.965.451a3.595 3.595 0 0 0 2.064-.04 4.313 4.313 0 0 0 1.715-1.046l-.558-.184c.1.684.424 1.375.98 1.867.273.247.596.438.94.571a3.23 3.23 0 0 0 1.079.195c.728 0 1.433-.236 2.01-.631.293-.194.557-.427.784-.692.117-.128.217-.27.316-.413.098-.143.188-.31.252-.411a2.697 2.697 0 0 1 1.195-1.055l.856-.424.841-.445a57.33 57.33 0 0 0 3.269-1.93 74.45 74.45 0 0 0 11.785-9.42c3.582-3.526 6.834-7.418 9.396-11.763 2.562-4.323 4.442-9.135 4.962-14.193l.001-.002.11-.733-.623.419c-2.998 2.017-6.185 3.768-9.531 5.168-3.346 1.398-6.853 2.443-10.451 3.026-3.596.583-7.289.698-10.925.232l-.682-.076-.675-.127-1.353-.255c-.453-.07-.895-.197-1.338-.319l-1.33-.359-.333-.089-.325-.116-.65-.232-1.297-.465c-.438-.168-.906-.395-1.36-.583l-1.378-.57Z" fill="#281400"/><g opacity=".7"><path opacity=".7" d="M-10.304 163.679c3.705 1.859 7.689 2.953 11.813 3.341-2.576-.096-8.389.25-11.66 4.925-4.29 6.127-14.021 16.527 3.573 25.197-1.067 1.062-2.588 1.426-3.837.874a2.84 2.84 0 0 1-.386-.202c-.863-.545-1.353-1.473-1.43-2.492-1.146.864-2.642 1.032-3.8.3a2.663 2.663 0 0 1-.312-.231c-.956-.796-1.327-2.13-1.023-3.437-.67.177-1.371.102-1.963-.272-1.226-.775-1.51-2.532-.628-3.924l.002-.004c.177-.28.285-.596.282-.938-.068-7.331 9.272-23.017 9.272-23.017l.097-.12ZM2.823 167.082l-.004.006s-.027-.005-.068-.01a.829.829 0 0 0 .072.004Z" fill="#E8B17E"/></g><path d="M10.814 73.288c3.538 7.949 10.113 15.592 19.064 21.249 8.936 5.647 18.646 8.308 27.336 8.102.752.809 1.484 1.616 2.199 2.415.161.181.328.336.5.463.109 10.914-3.184 22.798-10.072 33.688-5.032 7.955-11.365 14.406-18.277 19.092-13.5 9.153-29.2 11.569-41.716 5.284a31.807 31.807 0 0 1-2.736-1.548c-19.055-12.041-21.863-41.783-6.274-66.43 6.888-10.89 16.216-18.962 26.125-23.545.187.103.402.186.635.254 1.06.308 2.134.634 3.216.976Z" fill="#FFF9C5"/><path d="M10.6 73.525c.225.516.433 1.005.694 1.525.284.534.549 1.078.847 1.603a44.91 44.91 0 0 0 1.896 3.098 48.692 48.692 0 0 0 4.49 5.721c3.272 3.59 7.056 6.719 11.164 9.322 4.115 2.593 8.561 4.674 13.207 6.093 4.644 1.418 9.497 2.177 14.335 2.074l-.254-.108 1.325 1.455.662.729c.213.232.454.518.756.733l.002.001-.136-.263a52.92 52.92 0 0 1-.288 6.786c-.066.562-.122 1.124-.198 1.686l-.253 1.678c-.088.559-.212 1.11-.315 1.667-.101.557-.228 1.108-.361 1.657-.241 1.104-.553 2.191-.846 3.283-.336 1.079-.65 2.163-1.038 3.225-.358 1.07-.78 2.118-1.195 3.167-.455 1.032-.883 2.076-1.384 3.087-.472 1.024-1.003 2.019-1.525 3.019-.262.5-.554.983-.832 1.473l-.42.733-.442.72a63.371 63.371 0 0 1-3.794 5.592l-1.041 1.33-1.074 1.304-1.116 1.269-1.148 1.238a62.428 62.428 0 0 1-4.936 4.6 62.24 62.24 0 0 1-11.204 7.418c-.494.264-1.007.492-1.499.757-.497.259-.982.539-1.482.791-.508.238-1.017.469-1.53.699l-.77.342c-.259.113-.525.199-.787.302l-1.579.593-.394.148-.403.124-.806.247c-.54.161-1.07.346-1.615.489l-1.642.4a38.305 38.305 0 0 1-13.478.774c-2.245-.325-4.49-.779-6.632-1.573-1.092-.335-2.122-.836-3.17-1.288-1.043-.47-2.038-1.038-3.013-1.636a32.892 32.892 0 0 1-5.388-4.241l-.61-.606-.304-.302-.287-.321c-.377-.43-.764-.854-1.135-1.288l-1.057-1.354c-.348-.454-.653-.939-.981-1.409a37.945 37.945 0 0 1-3.225-6.039 43.35 43.35 0 0 1-2.087-6.501c-.546-2.212-.846-4.471-1.038-6.729-.207-2.261-.175-4.533-.06-6.789l.12-1.691.196-1.683c.055-.562.144-1.118.237-1.675.094-.555.166-1.114.276-1.668.225-1.104.43-2.212.716-3.302.248-1.097.578-2.174.887-3.254a70.983 70.983 0 0 1 12.624-23.579c.694-.881 1.45-1.71 2.182-2.56.77-.817 1.522-1.648 2.324-2.432.777-.81 1.607-1.566 2.423-2.339.845-.741 1.68-1.493 2.56-2.191A60.201 60.201 0 0 1 7.107 72.34h.003l-.296-.011c.332.184.708.282.999.37l.925.278 1.862.548Zm.43-.475-2.01-.638-1.009-.312c-.354-.108-.634-.183-.895-.327l-.144-.08-.152.07h-.003a54.618 54.618 0 0 0-6.102 3.171c-1.976 1.165-3.847 2.494-5.652 3.898-.912.693-1.775 1.441-2.65 2.176-.846.767-1.71 1.52-2.516 2.33-.833.786-1.598 1.633-2.388 2.459-.751.858-1.528 1.697-2.24 2.59a67.233 67.233 0 0 0-7.6 11.362 64.033 64.033 0 0 0-5.042 12.708c-.288 1.106-.593 2.207-.817 3.328-.264 1.11-.447 2.241-.647 3.366-.099.563-.159 1.133-.239 1.7a26.689 26.689 0 0 0-.198 1.704l-.157 1.71-.09 1.716c-.201 4.575.147 9.196 1.158 13.706a43.56 43.56 0 0 0 2.074 6.628 38.657 38.657 0 0 0 3.246 6.19c2.517 3.952 5.936 7.353 9.894 9.936.997.635 2.02 1.234 3.088 1.744 1.074.492 2.133 1.03 3.26 1.4 2.206.866 4.526 1.382 6.852 1.764 4.668.652 9.437.477 13.995-.526l1.709-.379c.567-.136 1.12-.314 1.682-.47l.84-.242.42-.121.411-.145 1.645-.58c.272-.101.551-.188.818-.298l.803-.337c.535-.221 1.074-.441 1.615-.654.54-.216 1.058-.472 1.587-.713.522-.252 1.052-.495 1.548-.792l1.488-.889.744-.445c.248-.148.48-.319.723-.476.952-.65 1.925-1.268 2.84-1.965a60.634 60.634 0 0 0 5.258-4.43c6.62-6.304 12.04-13.755 15.893-21.976 3.849-8.207 6.103-17.217 6.176-26.396l.002-.157-.139-.106-.002-.001c-.233-.169-.424-.39-.652-.641l-.666-.731-1.33-1.461-.1-.111-.153.003c-4.756.102-9.54-.645-14.123-2.044-4.587-1.4-8.978-3.455-13.043-6.019-4.058-2.575-7.795-5.662-11.024-9.207A47.71 47.71 0 0 1 14.59 79.4a44.49 44.49 0 0 1-1.866-3.051c-.295-.518-.555-1.053-.836-1.58-.284-.547-.569-1.153-.858-1.718Z" fill="#281400"/><path opacity=".5" d="M10.818 73.287c3.539 7.949 10.114 15.593 19.066 21.25 8.936 5.647 18.647 8.308 27.338 8.103.751.809 1.483 1.616 2.198 2.415.16.179.326.335.497.458.053 5.161-.65 10.539-2.142 15.925-1.242 1.442-3.163 2.35-5.677 2.654-1.562.194-2.645 1.144-3.016 2.582a4.216 4.216 0 0 1-.112.366c-.867 2.478-3.799 3.452-8.182 2.935-2.44-.283-4.248.791-4.855 2.729a3.424 3.424 0 0 1-.101.281c-.957 2.287-4.537 2.62-9.6 1.215-5.317-1.467-10.488-1.561-15.01-.354-3.636.989-9.1-2.561-9.562-6.216-.578-4.398-2.687-8.889-6.12-12.949-3.27-3.854-4.413-7.121-2.796-8.926.066-.074.135-.145.21-.212 1.49-1.38 1.683-3.474.38-5.556-1.554-2.47-2.239-4.646-1.988-6.373h-.005s-1.313-7.816-4.893-3.093c-3.58 4.724-24.869 54.719 12.374 69.018 10.867 4.173 20.385 3.896 28.42 1.418-12.44 6.901-26.19 8.248-37.388 2.622a31.812 31.812 0 0 1-2.736-1.548c-19.056-12.042-21.865-41.786-6.275-66.433 3.78-5.977 8.299-11.102 13.242-15.268a.666.666 0 0 1 .006-.01c.057-.047.116-.094.175-.144.22-.185.443-.367.665-.547.19-.156.384-.312.577-.463.217-.171.433-.342.652-.509.202-.156.406-.311.611-.465.211-.159.424-.316.637-.473.214-.157.43-.31.643-.464.207-.148.413-.294.623-.438.225-.154.45-.306.677-.458.137-.092.273-.188.408-.278l.004.002a54.894 54.894 0 0 1 7.225-4.021c.184.098.392.18.62.247 1.054.31 2.128.635 3.21.978Z" fill="#E8B17E"/><path opacity=".5" d="m45.123 137.726-2.056.324.216.136-.576-1.987.238 2.047a.166.166 0 0 0 .216.137l1.962-.657ZM29.329 139.9a10.9 10.9 0 0 0-1.086.226c-.357.089-.71.19-1.058.304l.227.154c-.019-.449-.059-.895-.109-1.341a11.89 11.89 0 0 0-.226-1.336c-.052.45-.06.899-.06 1.347.007.448.02.896.058 1.342v.005a.172.172 0 0 0 .181.157.133.133 0 0 0 .046-.008c.347-.117.69-.244 1.03-.384.334-.144.67-.291.997-.466ZM31.945 152.034a9.225 9.225 0 0 0-1.103.304c-.36.119-.712.254-1.06.399l.236.126c-.157-.689-.337-1.37-.615-2.034.02.713.137 1.408.28 2.098.018.09.109.152.2.136.012-.002.023-.006.034-.01h.003c.349-.142.694-.295 1.032-.462.34-.166.676-.346.993-.557ZM12.144 142.316c-.91.148-1.785.397-2.651.672l.228.194c.133-.873.239-1.75.242-2.644-.272.848-.44 1.714-.584 2.583a.174.174 0 0 0 .228.191c.862-.28 1.717-.589 2.537-.996ZM17.155 157.176c-.226.028-.447.078-.668.116a19.97 19.97 0 0 0-.657.15c-.435.106-.867.23-1.293.36l.228.157c-.053-.832-.133-1.663-.312-2.491-.086.837-.07 1.669-.033 2.502a.178.178 0 0 0 .18.166.16.16 0 0 0 .048-.009 22.508 22.508 0 0 0 1.895-.67c.203-.095.411-.177.612-.281ZM1.836 158.597c-.582.137-1.149.31-1.708.506-.56.193-1.108.409-1.65.639l.223.155a17.391 17.391 0 0 0-.14-2 16.77 16.77 0 0 0-.182 1.988.16.16 0 0 0 .152.164.12.12 0 0 0 .063-.01l.008-.003a26.717 26.717 0 0 0 1.644-.653 17.05 17.05 0 0 0 1.59-.786ZM22.03 172.042c-.9.209-1.755.513-2.603.831-.422.162-.842.333-1.256.513-.417.173-.822.372-1.233.559l.476.335c.027-.574.045-1.149.043-1.729a17.787 17.787 0 0 0-.09-1.742c-.163.56-.272 1.127-.376 1.692a32.567 32.567 0 0 0-.24 1.707.334.334 0 0 0 .286.365.32.32 0 0 0 .174-.024l.014-.005c.414-.179.834-.348 1.242-.542.411-.185.816-.384 1.219-.589.8-.414 1.595-.845 2.344-1.371ZM.938 176.834c-.684.167-1.34.391-1.983.639-.324.118-.64.255-.96.387a32.7 32.7 0 0 0-.94.42l.501.301c-.017-.353-.039-.708-.068-1.06-.037-.352-.06-.705-.108-1.06a23.556 23.556 0 0 0-.153-1.058c-.067-.352-.128-.704-.225-1.057-.06.357-.088.709-.119 1.066-.023.353-.042.709-.047 1.063-.016.353-.002.708-.006 1.061.006.353.018.707.037 1.061v.003a.352.352 0 0 0 .502.299c.31-.149.618-.298.922-.458.302-.161.609-.317.905-.49.596-.34 1.184-.7 1.742-1.117ZM3.143 191c-.709.004-1.404.072-2.093.162-.345.04-.686.1-1.029.154-.34.056-.68.122-1.02.191l.418.407c.068-.347.127-.693.183-1.042.045-.35.108-.696.141-1.049.044-.351.072-.703.1-1.059.019-.356.04-.711.028-1.073-.143.33-.253.666-.368 1.003-.106.338-.208.675-.297 1.016-.099.34-.17.684-.255 1.024-.077.343-.15.689-.214 1.035l-.001.002a.35.35 0 0 0 .42.402 29.03 29.03 0 0 0 1.01-.231c.335-.088.67-.166 1.002-.266.67-.187 1.332-.399 1.975-.676Z" fill="#E8B17E"/><path opacity=".7" d="M11.434 166.573c6.774-1.121 13.622-3.937 19.982-8.248-1.461 12.387-10.991 23.24-19.754 30.341 4.062-5.773 10-14.58 10.982-18.083 1.521-5.41-11.21-4.01-11.21-4.01Z" fill="#E8B17E"/><path d="M25.388 26.1c-.445-1.507-.911-4.053-1.151-5.44-.05-.292.323-.43.53-.198.601.666 1.44 1.598 1.875 2.086.645.723 1.282 1.439 1.918 2.14a219.98 219.98 0 0 0 4.042 4.327l.428.443c3.915 4.036 8.911 6.919 14.31 8.416 3.932 1.09 7.892 2.707 11.745 4.861.925-.206.748-1.85.496-3.016-.088-.407.42-.694.688-.387 1.107 1.264 1.197 3.18 1.167 4.106a.907.907 0 0 0 .443.819c.33.193.76.05.947-.305 1.417-2.686 3.598-2.856 5.014-2.615.261.044.257.423-.002.495-2.506.705-2.9 4.42-2.9 4.42l-.047.22c3.346 2.45 6.299 5.187 8.813 8.103 3.599 4.173 8.266 7.396 13.504 9.173l.651.22c1.6.538 3.342 1.09 5.642 1.792.927.278 1.866.551 2.815.828l2.627.775c.299.089.335.485.05.565-1.357.375-3.855 1.04-5.405 1.282-.68.109-1.377.202-2.089.28-.255.028-.268.37-.018.461 1.01.37 2.01.738 2.992 1.117.213.082.202.374-.014.403a56.48 56.48 0 0 1-5.534.436 62.406 62.406 0 0 1-3.236.025c-1.467-.023-2.5 1.114-2.297 2.516l.004.029c.879 5.943-.086 11.706-3.17 16.583C71.48 104.892 49 106.376 30.017 94.376S2.734 61.436 11.48 47.604c3.072-4.859 7.84-8.191 13.553-9.954.012-.002.023-.006.037-.01 1.352-.428 1.885-1.93 1.237-3.245a63.928 63.928 0 0 1-1.356-2.922 55.588 55.588 0 0 1-1.978-5.197c-.066-.208.191-.345.357-.188.756.715 1.512 1.453 2.27 2.195.19.186.493.028.409-.215a52.778 52.778 0 0 1-.62-1.969Z" fill="#9B4F1C"/><path d="M25.797 25.99c-.28-.925-.497-1.887-.705-2.85a45.583 45.583 0 0 1-.29-1.447l-.133-.727-.064-.356c.002.006 0 .039-.016.063-.015.025-.034.037-.046.04-.022.009-.05-.006-.052-.008l.238.264.505.558 1.006 1.115 2.017 2.236 4.128 4.392a31.76 31.76 0 0 0 4.58 3.99 33.95 33.95 0 0 0 2.557 1.651c.882.505 1.78.973 2.7 1.4.925.416 1.86.808 2.817 1.139.95.335 1.937.622 2.891.887a50.341 50.341 0 0 1 5.63 2.018 50.498 50.498 0 0 1 5.364 2.659l.004.002.126.071.109-.036c.082-.027.165-.05.244-.087.073-.046.155-.086.214-.146.127-.114.223-.25.286-.387.128-.276.169-.55.191-.812.03-.525-.029-1.027-.114-1.52l-.07-.368c-.016-.078-.018-.084-.017-.1-.001-.014.006-.025.01-.04.015-.028.05-.056.076-.06.029-.003.02-.006.034.005l.008.005.026.032.053.066.104.13c.06.094.13.185.184.283.112.194.216.397.297.61.336.852.44 1.801.423 2.728-.02.295.083.651.311.9.12.129.24.229.422.304a.979.979 0 0 0 .547.054 1.047 1.047 0 0 0 .644-.407c.051-.068.093-.151.117-.189.117-.197.222-.401.358-.583.505-.756 1.214-1.356 2.058-1.656.421-.148.87-.222 1.326-.228a4.63 4.63 0 0 1 .686.04l.172.023.042.006c.004.003-.008 0-.009-.003a.118.118 0 0 1-.04-.025c-.053-.063-.032-.07-.028-.086.006-.01.02-.019.025-.018l-.183.068c-.124.05-.257.085-.372.151l-.347.199c-.11.072-.209.16-.316.239-.401.34-.724.748-.98 1.186-.497.889-.785 1.837-.926 2.846l.005-.033-.043.2-.004.02-.047.193.176.14a71.59 71.59 0 0 1 2.777 2.331 56.063 56.063 0 0 1 2.62 2.49 53.008 53.008 0 0 1 2.452 2.637l1.189 1.382c.411.466.83.924 1.269 1.363 3.486 3.53 7.888 6.236 12.618 7.726l3.49 1.105c1.162.367 2.323.743 3.494 1.076l3.498 1.026.436.128.193.057a.42.42 0 0 1-.274-.46.46.46 0 0 1 .285-.353.205.205 0 0 1 .004 0l-.108.029-.216.058c-.573.158-1.148.312-1.724.458-1.153.288-2.306.576-3.45.744l-1.76.238-.164.025a.912.912 0 0 0-.742 1.019 1.006 1.006 0 0 0 .63.797l.073.028.108.04.851.317 1.702.634.213.08.052.02c.034.013-.047-.017-.06-.03a.512.512 0 0 1-.173-.17.507.507 0 0 1 .346-.756c.04-.007-.021.001-.026 0l-.884.107a56.94 56.94 0 0 1-3.558.282c-.596.033-1.192.047-1.789.046l-1.792.016c-.306.006-.56-.004-.979.022a3.035 3.035 0 0 0-1.11.32 2.781 2.781 0 0 0-1.436 1.77 2.938 2.938 0 0 0-.07 1.153l.114.88c.044.291.063.582.09.872.027.29.054.581.065.872a24.429 24.429 0 0 1-.033 3.482c-.328 4.623-2.119 9.08-5.116 12.572a22.87 22.87 0 0 1-5.247 4.462c-1.963 1.232-4.129 2.147-6.37 2.822-4.495 1.342-9.315 1.643-14.053 1.158-4.745-.487-9.423-1.76-13.847-3.624a54.914 54.914 0 0 1-12.418-7.274c-3.797-2.952-7.211-6.403-10.02-10.283-2.803-3.875-5.005-8.192-6.243-12.758a30.038 30.038 0 0 1-1.058-6.96c-.064-2.34.202-4.677.8-6.918 1.17-4.496 3.867-8.532 7.524-11.403 1.826-1.44 3.882-2.6 6.058-3.484.27-.119.55-.21.822-.316.274-.108.552-.203.834-.293l.42-.139.215-.07.252-.095c.33-.141.633-.351.876-.616a2.671 2.671 0 0 0 .694-1.96 3.079 3.079 0 0 0-.242-1.025c-.074-.174-.136-.3-.198-.436l-.191-.407c-.499-1.088-1.036-2.163-1.486-3.273a54.76 54.76 0 0 1-1.275-3.35l-.143-.424-.07-.213-.036-.106c-.01-.03-.002-.014 0 .008a.22.22 0 0 1 .002.066.226.226 0 0 1-.362.161l.303.291 1.31 1.262.67.644a.718.718 0 0 0 .552.183c.201-.02.399-.13.508-.333a.62.62 0 0 0 .071-.322c-.002-.107-.047-.217-.047-.23l-.067-.213-.552-1.706Zm-.82.215.548 1.737.068.217c.018.058.004.02.003-.012a.22.22 0 0 1 .024-.108.185.185 0 0 1 .282-.06l-.643-.625-1.312-1.274-.164-.159-.082-.08-.04-.039c-.015-.015-.018-.02-.067-.06a.684.684 0 0 0-.627-.13.617.617 0 0 0-.434.691c.012.058.027.112.03.116l.034.108.07.218.143.432c.39 1.15.82 2.287 1.281 3.41.453 1.126.99 2.217 1.494 3.324l.19.414c.064.138.131.283.175.39.096.232.155.473.165.717.027.487-.143.966-.462 1.305-.16.17-.355.304-.573.397l-.168.065-.215.07-.433.14c-.29.093-.576.19-.862.3-.283.11-.574.202-.85.323-2.256.903-4.393 2.099-6.304 3.59-3.824 2.972-6.668 7.184-7.913 11.877a25.343 25.343 0 0 0-.866 7.207c.062 2.433.437 4.859 1.063 7.216 1.258 4.724 3.506 9.169 6.364 13.157 2.864 3.994 6.345 7.54 10.217 10.58a56.293 56.293 0 0 0 12.682 7.5c4.533 1.928 9.337 3.241 14.229 3.752 4.883.509 9.878.211 14.58-1.182 2.343-.7 4.618-1.656 6.692-2.951a24.158 24.158 0 0 0 5.564-4.716c3.19-3.697 5.1-8.447 5.455-13.326.102-1.218.115-2.445.041-3.666a15.969 15.969 0 0 0-.064-.916c-.03-.305-.049-.611-.093-.913l-.113-.9a1.508 1.508 0 0 1 .038-.619c.102-.393.37-.72.737-.906a1.62 1.62 0 0 1 .606-.171c.184-.013.537-.01.83-.014l1.83-.012c.612 0 1.221-.015 1.83-.045a57.952 57.952 0 0 0 3.65-.281l.909-.109.085-.011a.884.884 0 0 0 .622-.427.92.92 0 0 0-.023-.935.992.992 0 0 0-.5-.407l-.054-.022-.214-.08-1.714-.642-.857-.32-.107-.04c-.01-.003-.058-.02-.033-.012a.492.492 0 0 1 .29.378.48.48 0 0 1-.386.53l.057-.008 1.819-.243c1.237-.177 2.414-.474 3.587-.765.587-.15 1.17-.303 1.752-.462l.219-.059.109-.03c.01-.004.035-.01.109-.037a.946.946 0 0 0 .622-.758 1.017 1.017 0 0 0-.165-.721 1.101 1.101 0 0 0-.568-.433l-.242-.074-.437-.13-3.495-1.031c-1.166-.332-2.316-.707-3.471-1.075l-3.461-1.102a31.089 31.089 0 0 1-12.123-7.27 28.994 28.994 0 0 1-1.255-1.268l-1.228-1.344a48.16 48.16 0 0 0-5.418-4.994 46.166 46.166 0 0 0-2.964-2.178l.13.334.003-.02.043-.2.001-.01.004-.024c.124-.897.404-1.815.847-2.597.228-.39.509-.74.84-1.02.086-.063.168-.138.257-.197l.281-.158c.092-.056.201-.079.299-.122l.156-.059a.58.58 0 0 0 .237-.978.575.575 0 0 0-.296-.142l-.048-.007-.193-.027a5.604 5.604 0 0 0-.777-.045 4.785 4.785 0 0 0-1.537.267c-.99.35-1.81 1.058-2.367 1.891-.15.204-.266.425-.393.64-.037.063-.049.09-.07.115-.02.03-.045.053-.07.077a.397.397 0 0 1-.179.084c-.124.027-.23-.021-.345-.142a.598.598 0 0 1-.144-.448c.02-.997-.087-2.013-.468-2.984a4.954 4.954 0 0 0-.343-.706c-.065-.115-.145-.223-.22-.333l-.124-.158-.063-.08-.033-.038-.06-.059a.699.699 0 0 0-.65-.161.75.75 0 0 0-.474.375.7.7 0 0 0-.082.304c-.008.107.023.221.03.262l.066.347c.082.462.132.93.107 1.366a1.714 1.714 0 0 1-.131.584c-.08.16-.173.248-.313.281l.235.035-.004-.002a61.442 61.442 0 0 0-5.455-2.636 53.39 53.39 0 0 0-5.7-2.025 44.73 44.73 0 0 1-2.854-.891c-.938-.33-1.854-.72-2.758-1.134-.9-.424-1.78-.886-2.641-1.386a33.324 33.324 0 0 1-2.495-1.63 31.202 31.202 0 0 1-4.465-3.936l-4.088-4.4-1.997-2.242-1.002-1.123-.502-.561-.265-.294a.711.711 0 0 0-.74-.178.63.63 0 0 0-.329.264.626.626 0 0 0-.08.418l.064.373.128.733.269 1.466c.196.973.393 1.948.663 2.928Z" fill="#281400"/><path d="M5.748 48.624c-.114-.473-.071-.93.167-1.32.24-.392.628-.643 1.109-.762a.536.536 0 0 0 .422-.574c-.04-.458.08-.884.394-1.226.316-.346.769-.54 1.288-.601.29-.035.5-.236.522-.492.037-.44.237-.83.618-1.12.39-.297.896-.434 1.448-.436.295 0 .54-.17.606-.408.117-.415.393-.766.838-1.004.459-.248 1.007-.33 1.579-.275.29.026.555-.106.664-.32.193-.388.54-.7 1.042-.889.519-.197 1.1-.223 1.679-.117.276.05.558-.05.7-.24.264-.359.677-.63 1.224-.77a3.408 3.408 0 0 1 1.716.026c.27.071.57-.002.75-.175.33-.321.793-.549 1.367-.64a3.623 3.623 0 0 1 2.486.527c1.981 1.247 4.02 2.437 6.13 3.466 12.622 6.05 16.666 14.85 17.536 21.333 6.229-1.994 15.91-2.114 26.787 6.697 1.835 1.465 3.784 2.797 5.76 4.052a3.625 3.625 0 0 1 1.543 2.02c.163.559.156 1.074.007 1.51a.808.808 0 0 0 .165.753c.375.445.648.97.759 1.539.108.554.04 1.044-.17 1.436-.112.21-.082.509.083.736.342.476.567 1.013.614 1.567.045.536-.089.982-.355 1.323-.15.19-.155.488-.005.738.294.493.456 1.023.428 1.544-.025.507-.224.907-.547 1.188-.187.163-.233.454-.108.722.234.5.327 1.016.227 1.496-.1.47-.366.817-.746 1.039-.223.13-.315.407-.22.682.167.495.186.987.008 1.422-.173.428-.506.72-.938.882a.539.539 0 0 0-.337.627c.096.484.038.944-.213 1.329-.25.383-.644.617-1.121.717a.539.539 0 0 0-.447.558c.022.466-.114.89-.436 1.219-.323.331-.775.508-1.287.55-.293.023-.515.217-.547.475a1.55 1.55 0 0 1-.652 1.101c-.394.281-.89.398-1.429.38-.299-.01-.553.152-.63.393-.13.411-.41.753-.856.976-.455.227-.99.291-1.542.217-.295-.039-.573.09-.69.308-.201.379-.548.68-1.042.85-.51.178-1.069.186-1.624.061-.282-.063-.574.031-.723.225-.27.35-.673.607-1.206.727a3.185 3.185 0 0 1-1.67-.089.754.754 0 0 0-.731.149c-.328.318-.783.534-1.341.61a3.306 3.306 0 0 1-1.66-.225.798.798 0 0 0-.757.086c-.378.278-.865.453-1.435.479-.508.023-.993-.3-1.432-.79-2.599-2.907-5.417-5.931-8.639-8.707-7.014-6.048-9.91-13.049-10.305-18.6-5.185 2.023-12.75 2.408-21.219-1.335-3.89-1.719-7.829-2.97-11.568-4.072-.63-.186-1.13-.486-1.328-.955-.22-.525-.272-1.04-.182-1.502a.8.8 0 0 0-.247-.72 3.27 3.27 0 0 1-.915-1.404c-.173-.538-.171-1.041-.025-1.474.079-.231.008-.525-.179-.725a3.179 3.179 0 0 1-.797-1.47c-.118-.532-.059-1.01.14-1.401.111-.219.07-.523-.107-.75-.35-.447-.583-.958-.641-1.494-.056-.518.065-.962.32-1.307.148-.198.144-.505-.017-.754-.3-.469-.476-.979-.465-1.487.011-.497.198-.899.514-1.193.184-.172.222-.471.085-.737-.246-.478-.354-.98-.27-1.454.084-.47.34-.825.714-1.062.22-.139.303-.423.196-.698-.183-.48-.218-.963-.056-1.399.16-.434.485-.738.914-.916a.545.545 0 0 0 .308-.646Z" fill="#FFF9C5"/><path d="M59.967 105.702c.332.21.666.309 1 .294.612-.028 1.168-.215 1.608-.541a.484.484 0 0 1 .442-.049 3.636 3.636 0 0 0 1.829.248c.608-.081 1.134-.32 1.522-.694.092-.09.264-.123.408-.076.623.197 1.261.23 1.843.096.585-.134 1.063-.425 1.387-.843.076-.099.243-.146.397-.111.636.142 1.26.117 1.803-.071.551-.192.972-.538 1.216-1.001.056-.104.209-.162.364-.143.64.085 1.238-.002 1.73-.25.504-.255.854-.655 1.014-1.161.034-.108.164-.177.316-.173.633.019 1.194-.133 1.627-.442.444-.318.715-.772.78-1.316.013-.11.116-.192.258-.203.612-.049 1.128-.271 1.49-.644.37-.378.551-.88.524-1.452-.005-.116.072-.209.197-.235.578-.12 1.036-.416 1.32-.852.285-.436.375-.975.257-1.562-.025-.127.029-.229.138-.27.532-.2.919-.564 1.12-1.057.198-.484.196-1.055-.004-1.644-.044-.13-.01-.253.085-.309.47-.275.779-.707.892-1.245.11-.526.024-1.115-.25-1.698-.062-.133-.05-.276.032-.347.401-.348.628-.835.655-1.408.028-.56-.135-1.158-.475-1.727-.09-.149-.075-.305-.014-.38.326-.413.471-.946.42-1.54-.048-.588-.281-1.184-.673-1.731-.102-.141-.106-.306-.057-.397.25-.469.321-1.038.201-1.647a3.756 3.756 0 0 0-.83-1.687.487.487 0 0 1-.103-.44c.175-.512.171-1.1-.005-1.702a3.943 3.943 0 0 0-1.686-2.21c-2.267-1.438-4.088-2.72-5.73-4.03-11.59-9.388-21.577-8.418-26.72-6.872-.809-5.31-4.215-14.752-17.667-21.198-1.885-.921-3.824-2.016-6.096-3.448a3.942 3.942 0 0 0-2.718-.576c-.62.1-1.151.351-1.54.726-.1.1-.282.139-.44.096a3.74 3.74 0 0 0-1.88-.027c-.6.154-1.085.459-1.402.889-.06.082-.213.148-.383.117-.66-.12-1.3-.074-1.853.134-.56.21-.977.571-1.212 1.04-.043.086-.176.164-.348.15-.662-.06-1.27.046-1.764.311-.504.272-.847.686-.99 1.196-.03.106-.153.177-.3.179-.646.004-1.213.175-1.64.501a1.854 1.854 0 0 0-.743 1.34c-.01.11-.107.193-.242.21-.618.071-1.134.315-1.487.701-.359.393-.522.9-.473 1.463.01.117-.06.212-.185.24-.58.146-1.029.458-1.3.904-.27.444-.34.983-.204 1.557.03.124-.02.234-.127.28-.529.22-.904.6-1.087 1.095-.181.487-.16 1.05.057 1.623.05.131.022.26-.072.32a1.862 1.862 0 0 0-.854 1.27c-.095.522.01 1.095.299 1.66.068.134.061.282-.022.358-.388.362-.601.85-.614 1.416-.012.55.166 1.127.516 1.672.086.133.096.297.027.39-.314.418-.445.947-.383 1.528.062.569.308 1.145.71 1.66.097.123.126.294.07.404-.238.468-.297 1.027-.166 1.615.129.583.432 1.145.878 1.624.103.11.147.28.106.4-.172.512-.164 1.089.026 1.674.186.58.535 1.114 1.008 1.546a.475.475 0 0 1 .146.418c-.105.538-.033 1.122.2 1.687.22.525.738.91 1.543 1.146 3.664 1.08 7.595 2.319 11.527 4.057 7.259 3.209 14.904 3.747 21.059 1.498.608 6.525 4.373 13.203 10.384 18.386 3.258 2.809 6.062 5.83 8.609 8.677.233.263.465.465.699.613ZM72.61 66.666a42.15 42.15 0 0 1 4.002 2.883c1.662 1.327 3.502 2.622 5.79 4.074a3.28 3.28 0 0 1 1.402 1.835c.14.474.144.93.012 1.318-.118.345-.029.764.225 1.064.355.421.593.9.687 1.388.09.464.041.887-.139 1.228-.17.317-.124.748.108 1.074.322.448.512.933.553 1.403.037.44-.061.81-.29 1.1-.233.295-.242.736-.027 1.097.272.459.405.932.383 1.364-.02.405-.168.729-.441.968-.297.26-.371.698-.184 1.095.214.456.283.901.2 1.293a1.22 1.22 0 0 1-.597.835c-.352.206-.5.64-.359 1.058.152.448.157.85.015 1.2-.134.332-.39.57-.758.707a.85.85 0 0 0-.535.983c.086.424.029.793-.17 1.093-.196.299-.506.494-.92.581-.43.09-.718.452-.696.879.019.397-.098.728-.347.985-.258.266-.624.418-1.085.455-.441.036-.786.343-.836.75-.045.37-.222.668-.524.885-.317.227-.742.336-1.23.322-.445-.014-.824.23-.943.612-.109.346-.344.612-.7.791-.376.188-.845.255-1.353.188-.428-.055-.834.134-1.015.472-.172.324-.464.563-.867.701-.427.15-.926.166-1.445.051-.402-.092-.824.046-1.047.34-.231.301-.586.513-1.025.613a2.868 2.868 0 0 1-1.496-.082c-.372-.117-.796-.028-1.055.224-.29.279-.691.461-1.162.523a2.966 2.966 0 0 1-1.49-.202 1.129 1.129 0 0 0-1.076.124c-.34.25-.774.395-1.258.417-.356.017-.75-.211-1.166-.677-2.56-2.864-5.385-5.905-8.67-8.737-6.014-5.184-9.73-11.884-10.193-18.375l-.031-.45-.42.165c-6.062 2.367-13.705 1.88-20.966-1.33-3.967-1.754-7.925-3.002-11.61-4.087-.599-.177-.975-.433-1.111-.763-.188-.447-.243-.903-.163-1.317a1.131 1.131 0 0 0-.349-1.024 2.94 2.94 0 0 1-.822-1.26c-.146-.453-.155-.892-.026-1.275.116-.342.015-.763-.25-1.049a2.84 2.84 0 0 1-.716-1.316c-.097-.44-.059-.852.114-1.189.168-.33.111-.77-.141-1.093-.327-.419-.525-.875-.574-1.327-.045-.425.042-.79.261-1.084.23-.307.224-.757-.009-1.12-.278-.43-.421-.883-.41-1.302.007-.397.148-.723.414-.972.293-.272.351-.719.148-1.115-.224-.436-.305-.868-.237-1.25.067-.365.26-.653.575-.853.346-.22.479-.664.319-1.077-.165-.433-.183-.827-.055-1.175.124-.336.374-.583.741-.737a.852.852 0 0 0 .495-1.005c-.1-.415-.056-.779.13-1.081.186-.308.493-.516.915-.622a.85.85 0 0 0 .66-.904c-.034-.392.071-.724.313-.987.248-.273.626-.447 1.089-.5.437-.05.766-.37.802-.778.033-.368.2-.67.498-.898.317-.241.749-.37 1.254-.373.438-.002.804-.26.91-.636.098-.348.328-.622.684-.814.382-.206.866-.288 1.397-.239.42.04.814-.16.98-.494.163-.332.457-.58.869-.735.44-.165.96-.202 1.504-.102.394.074.802-.073 1.016-.363.228-.31.593-.536 1.05-.652a3.097 3.097 0 0 1 1.547.025c.38.101.796.002 1.057-.253.294-.285.707-.477 1.196-.554a3.279 3.279 0 0 1 2.258.48c2.293 1.444 4.252 2.551 6.162 3.483 13.505 6.474 16.667 15.985 17.351 21.08l.054.394.378-.12c4.32-1.39 12.585-2.504 22.47 3.748Z" fill="#281400"/><path d="M5.748 48.625c-.114-.474-.07-.93.168-1.32.24-.392.628-.643 1.108-.762a.536.536 0 0 0 .422-.574c-.04-.458.08-.884.394-1.227.317-.346.768-.538 1.288-.6.29-.036.5-.236.522-.493.037-.439.238-.83.618-1.12.39-.296.896-.433 1.449-.436.294 0 .538-.169.606-.407.116-.415.392-.766.837-1.005.46-.247 1.01-.328 1.579-.275.29.029.555-.106.664-.32.194-.388.54-.7 1.042-.888.52-.197 1.1-.224 1.68-.118.275.051.557-.05.7-.24.264-.358.676-.63 1.224-.77a3.408 3.408 0 0 1 1.715.026c.27.071.57-.002.75-.174.33-.322.793-.55 1.367-.641a3.623 3.623 0 0 1 2.487.527c1.98 1.248 4.019 2.437 6.129 3.467 12.623 6.049 16.666 14.849 17.536 21.332 6.229-1.994 15.91-2.114 26.788 6.697 1.835 1.465 3.783 2.797 5.759 4.052a3.625 3.625 0 0 1 1.543 2.02c.163.558.156 1.074.007 1.51a.808.808 0 0 0 .165.753c.375.445.648.97.759 1.538.108.555.04 1.045-.17 1.437-.112.21-.082.508.083.736.342.476.567 1.012.614 1.567.045.535-.089.982-.356 1.323-.149.189-.154.488-.004.737.294.493.455 1.024.428 1.545-.025.506-.224.906-.547 1.187-.187.163-.234.455-.109.723.235.5.328 1.016.227 1.496-.1.47-.365.817-.745 1.038-.223.13-.315.408-.221.683.168.495.186.987.01 1.421-.174.429-.507.72-.94.883a.539.539 0 0 0-.337.627c.097.484.039.944-.212 1.329-.25.382-.644.617-1.121.717a.539.539 0 0 0-.447.558c.022.465-.114.889-.436 1.219-.323.331-.775.508-1.287.549-.294.024-.516.217-.547.476-.054.441-.266.822-.652 1.1-.394.282-.89.399-1.43.381-.298-.01-.552.152-.628.393-.13.411-.412.753-.858.976-.454.227-.989.291-1.542.217-.294-.039-.572.09-.689.308-.202.379-.548.68-1.042.85-.51.177-1.069.186-1.624.061-.282-.063-.574.031-.724.225-.27.35-.672.607-1.205.727a3.196 3.196 0 0 1-1.67-.089.754.754 0 0 0-.731.149c-.328.318-.784.534-1.342.61a3.306 3.306 0 0 1-1.66-.225.793.793 0 0 0-.756.086c-.379.278-.863.45-1.429.478-.002-.001-.003.001-.006.001-.509.023-.994-.3-1.432-.79a179.905 179.905 0 0 0-2.197-2.414c-1.983-2.136-4.105-4.28-6.442-6.292-7.015-6.049-9.91-13.05-10.305-18.601-5.185 2.023-12.75 2.409-21.219-1.334-2.791-1.235-5.607-2.225-8.356-3.094a162.483 162.483 0 0 0-3.212-.978c-.63-.186-1.13-.486-1.328-.955-.001-.007-.003-.013-.005-.017-.213-.518-.265-1.026-.177-1.482a.8.8 0 0 0-.246-.721 3.27 3.27 0 0 1-.915-1.403c-.174-.538-.172-1.041-.025-1.474.079-.231.008-.525-.18-.725a3.178 3.178 0 0 1-.796-1.47c-.118-.532-.06-1.01.14-1.401.11-.219.07-.523-.107-.75-.35-.447-.583-.958-.642-1.494-.055-.518.065-.962.321-1.307.147-.198.144-.505-.017-.754-.3-.469-.476-.979-.465-1.487.011-.497.198-.899.514-1.193.184-.172.22-.47.084-.737-.246-.479-.353-.98-.269-1.455.084-.47.34-.824.714-1.06.22-.14.303-.424.196-.7-.183-.48-.218-.962-.056-1.398.16-.434.485-.738.914-.916a.55.55 0 0 0 .307-.649Z" fill="#FFF9C5"/><path d="M5.948 48.581a1.66 1.66 0 0 1 .007-.849c.079-.265.242-.506.464-.67.11-.085.237-.153.368-.206.066-.027.136-.048.206-.07l.114-.03a.776.776 0 0 0 .57-.577c.03-.11.017-.25.017-.3 0-.07.004-.139.012-.207.059-.546.478-.966 1.007-1.115.133-.04.27-.065.414-.078l.057-.005c.03-.005.061-.006.09-.014.06-.013.118-.028.176-.052a.902.902 0 0 0 .317-.206.827.827 0 0 0 .207-.337c.022-.06.035-.14.042-.19.003-.03.01-.061.016-.094a1.16 1.16 0 0 1 .13-.341c.238-.416.745-.663 1.29-.701.07-.007.138-.008.209-.008.042 0 .208.003.33-.028.255-.056.51-.203.668-.457a.93.93 0 0 0 .093-.204l.035-.101c.018-.055.045-.106.07-.155.055-.1.125-.19.211-.27.338-.329.89-.49 1.447-.468.08.003.123.007.23.014.13.008.259-.005.387-.037.251-.064.501-.216.657-.48l.06-.111.046-.074a1.11 1.11 0 0 1 .106-.137c.077-.088.172-.165.275-.234.419-.278.998-.382 1.563-.32.074.008.14.018.217.03.124.021.252.023.377.005.247-.035.492-.14.682-.351l.06-.073.028-.037c.02-.024.04-.05.059-.071.04-.046.086-.09.131-.132.095-.082.202-.156.318-.217.473-.247 1.073-.32 1.645-.233.071.01.143.025.215.039l.116.026a1.224 1.224 0 0 0 .86-.113c.054-.03.105-.063.154-.102.025-.019.048-.041.072-.063l.036-.035a1.928 1.928 0 0 1 .503-.33c.504-.228 1.117-.284 1.691-.184.29.052.574.14.84.269.139.064.258.136.394.22l.418.262a73.46 73.46 0 0 0 3.41 1.998c1.152.64 2.355 1.211 3.501 1.808l.87.444c.29.148.562.325.847.486l.84.495c.28.166.566.323.83.512a32.15 32.15 0 0 1 6.022 4.902c1.795 1.866 3.32 3.983 4.46 6.288.139.288.287.575.422.866l.368.887.184.444.157.454.31.907c.365 1.225.648 2.47.823 3.731l.006.03.064.398.368-.125c4.766-1.611 10.105-1.476 14.971.09 2.438.789 4.765 1.916 6.949 3.266.56.314 1.082.69 1.614 1.049l.79.55c.267.18.51.39.764.585l1.506 1.207c.499.421 1.004.832 1.517 1.233a65.545 65.545 0 0 0 3.152 2.314l.805.55a3.2 3.2 0 0 1 .643.53c.37.4.635.885.75 1.397a2.053 2.053 0 0 1 .001.907l-.02.084-.023.083c-.01.036-.016.072-.023.109-.046.286.014.555.131.792.057.115.142.237.22.323l.145.152c.094.104.18.214.261.325.165.228.298.478.389.745.087.268.136.549.102.821-.015.135-.046.27-.096.396l-.05.108a.739.739 0 0 0-.05.16.982.982 0 0 0 .079.62c.042.095.112.19.148.24.085.126.162.253.228.387.135.266.232.548.273.834a1.93 1.93 0 0 1-.044.839 1.411 1.411 0 0 1-.169.369c-.036.061-.071.091-.141.207a.834.834 0 0 0-.095.316 1 1 0 0 0 .145.6c.075.13.143.265.2.4.115.273.182.56.192.844.007.283-.043.564-.168.8a1.384 1.384 0 0 1-.239.322l-.08.075a.723.723 0 0 0-.231.443.894.894 0 0 0 .01.321c.017.097.073.222.097.274.06.136.11.275.149.415.074.28.09.57.036.84a1.314 1.314 0 0 1-.516.829c-.028.019-.054.039-.085.057l-.042.025-.073.046a.778.778 0 0 0-.313.593.928.928 0 0 0 .044.33c.025.079.043.14.06.211.034.14.054.278.058.417.01.277-.054.544-.184.77-.129.225-.329.4-.571.515l-.222.094a.84.84 0 0 0-.278.223.84.84 0 0 0-.161.673c.054.286.051.555-.027.803-.079.244-.23.461-.435.615a1.397 1.397 0 0 1-.34.19 1.663 1.663 0 0 1-.293.085.852.852 0 0 0-.672.542.924.924 0 0 0-.052.352c.003.068 0 .134-.007.198-.042.52-.408.937-.915 1.098-.125.04-.258.07-.396.085l-.104.01a1.023 1.023 0 0 0-.507.17.904.904 0 0 0-.263.279.813.813 0 0 0-.08.18c-.008.032-.018.065-.022.097l-.012.07a1.25 1.25 0 0 1-.107.353c-.204.438-.699.717-1.242.767a2.312 2.312 0 0 1-.208.013h-.245a1.047 1.047 0 0 0-.678.273.904.904 0 0 0-.223.331l-.04.11a1.096 1.096 0 0 1-.237.378c-.328.359-.887.528-1.44.502a2.996 2.996 0 0 1-.211-.016c-.05-.006-.189-.027-.308-.018-.242.015-.484.1-.68.281a1.194 1.194 0 0 0-.132.153.65.65 0 0 0-.05.084l-.022.039a1.305 1.305 0 0 1-.368.398c-.408.291-.987.387-1.538.314a2.988 2.988 0 0 1-.21-.033l-.12-.023a1.012 1.012 0 0 0-.181-.02 1.152 1.152 0 0 0-.704.198 1.066 1.066 0 0 0-.214.203l-.028.035c-.04.046-.08.094-.125.134a1.59 1.59 0 0 1-.304.22c-.451.248-1.04.312-1.59.208a3.791 3.791 0 0 1-.209-.045l-.234-.067a1.21 1.21 0 0 0-.722.04.99.99 0 0 0-.325.199c-.073.067-.1.092-.157.137-.1.078-.21.145-.33.201-.475.222-1.07.264-1.614.143a2.927 2.927 0 0 1-.407-.121l-.113-.043a1.17 1.17 0 0 0-.18-.05 1.253 1.253 0 0 0-.708.064.964.964 0 0 0-.163.084l-.114.077a1.875 1.875 0 0 1-.344.19 2.328 2.328 0 0 1-.793.178c-.218.02-.426-.056-.648-.207a2.21 2.21 0 0 1-.317-.263c-.1-.098-.197-.209-.312-.331l-.653-.719-1.309-1.434c-1.76-1.9-3.585-3.751-5.518-5.493-.478-.436-.986-.86-1.454-1.29-.476-.427-.954-.85-1.4-1.308-.224-.226-.457-.447-.677-.675l-.649-.705c-.443-.461-.831-.967-1.244-1.451-.785-1.001-1.54-2.03-2.192-3.117-.346-.534-.64-1.096-.95-1.649-.15-.279-.281-.567-.423-.85l-.21-.427-.186-.436c-.519-1.153-.93-2.35-1.252-3.565a20.776 20.776 0 0 1-.649-3.702l-.01-.09-.045-.441-.407.155c-1.153.44-2.35.77-3.568 1.009-.608.127-1.225.202-1.843.287-.621.05-1.239.122-1.864.132-2.495.11-5.008-.189-7.459-.738a45.47 45.47 0 0 1-1.825-.482c-.598-.194-1.207-.359-1.794-.588l-.888-.326c-.295-.11-.584-.24-.876-.359l-.872-.368-.883-.385c-2.364-1.008-4.783-1.874-7.219-2.658l-1.83-.569-.915-.284-.457-.145-.23-.072c-.07-.022-.135-.043-.201-.066-.259-.096-.494-.223-.643-.373a.7.7 0 0 1-.162-.234 2.723 2.723 0 0 1-.12-.37 2.007 2.007 0 0 1-.03-.843 1.22 1.22 0 0 0-.009-.555 1.333 1.333 0 0 0-.387-.665 2.72 2.72 0 0 1-.8-1.349 1.877 1.877 0 0 1 .002-.9c.007-.03.016-.052.025-.086.022-.07.039-.144.047-.212a1.288 1.288 0 0 0-.334-1.023l-.042-.045a2.771 2.771 0 0 1-.359-.484 2.5 2.5 0 0 1-.287-.72 1.73 1.73 0 0 1-.029-.72c.02-.113.056-.221.104-.323.126-.246.142-.548.077-.792a1.268 1.268 0 0 0-.253-.501l-.062-.081a3.081 3.081 0 0 1-.223-.34 2.28 2.28 0 0 1-.262-.736c-.043-.253-.032-.501.034-.725.032-.11.08-.217.142-.315l.024-.037c.014-.023.039-.057.054-.086a.982.982 0 0 0 .124-.571 1.24 1.24 0 0 0-.237-.63 2.827 2.827 0 0 1-.201-.361 2.116 2.116 0 0 1-.198-.769c-.013-.26.031-.51.146-.727a1.24 1.24 0 0 1 .22-.295.873.873 0 0 0 .269-.649 1.034 1.034 0 0 0-.13-.487l-.049-.093a2.484 2.484 0 0 1-.156-.39 1.793 1.793 0 0 1-.061-.801 1.272 1.272 0 0 1 .489-.82c.026-.02.054-.04.082-.059a.785.785 0 0 0 .344-.72 1.019 1.019 0 0 0-.072-.295 2.036 2.036 0 0 1-.142-.618c-.02-.277.036-.552.168-.786.129-.234.332-.423.58-.553.062-.037.113-.049.22-.11a.73.73 0 0 0 .325-.813Zm-.4.086a.372.372 0 0 1-.048.29c-.058.087-.123.104-.307.19-.308.154-.585.4-.759.71a1.94 1.94 0 0 0-.24 1.011 2.464 2.464 0 0 0 .15.762.575.575 0 0 1 .038.163.308.308 0 0 1-.09.242.247.247 0 0 1-.052.039c-.037.024-.075.047-.112.074a1.794 1.794 0 0 0-.73 1.104c-.079.351-.06.718.026 1.061.043.172.103.338.172.498l.055.118c.013.027.018.044.028.068a.352.352 0 0 1 .015.125c-.009.086-.027.128-.09.182a1.906 1.906 0 0 0-.356.434c-.195.326-.281.705-.282 1.07-.002.366.078.732.21 1.065.067.168.146.329.236.482a.664.664 0 0 1 .075.145c.012.034.015.07.017.103-.001.03-.006.06-.014.078a.052.052 0 0 1-.015.022c-.002.004-.003 0-.009.01l-.043.06a2.082 2.082 0 0 0-.27.517c-.132.368-.15.764-.103 1.13.047.368.166.727.333 1.053.083.163.178.32.283.468l.078.11c.023.033.021.032.032.049a.267.267 0 0 1 .03.082c.01.06.001.09-.016.121a2.27 2.27 0 0 0-.202.556 2.765 2.765 0 0 0-.002 1.143c.077.367.219.72.403 1.038a3.911 3.911 0 0 0 .49.667l.04.043c.002.005.008.008.01.013a.23.23 0 0 1 .047.16c0 .009-.002.012-.004.016-.013.042-.03.091-.042.139-.027.093-.044.19-.062.286-.058.387-.025.775.067 1.138a3.774 3.774 0 0 0 1.143 1.863c.035.03.073.085.087.144.009.03.012.058.011.08-.003.023.002-.001-.007.064-.009.048-.014.094-.02.143-.044.377-.008.756.087 1.113.047.183.107.344.186.528.096.207.233.391.39.535.315.294.666.456 1.008.574l3.678 1.105c2.423.76 4.822 1.594 7.161 2.572l.874.374.894.368c.3.12.596.25.899.361l.913.325c.603.23 1.228.394 1.843.588.62.177 1.248.33 1.875.48 2.517.543 5.098.828 7.662.695.641-.015 1.279-.092 1.916-.152.634-.093 1.27-.174 1.893-.31a22.146 22.146 0 0 0 3.672-1.07l-.452-.285.01.093c.084 1.288.314 2.565.63 3.821.32 1.255.731 2.49 1.253 3.681l.189.45.21.441c.142.292.276.59.427.877.31.572.609 1.152.958 1.701.666 1.122 1.44 2.176 2.243 3.204.424.497.822 1.017 1.275 1.49l.661.722c.227.235.461.463.694.693.454.47.944.905 1.428 1.343.486.446.97.85 1.446 1.286 1.906 1.724 3.71 3.56 5.455 5.452l1.3 1.431.65.716c.208.231.465.52.779.729.304.216.738.388 1.163.352a3.176 3.176 0 0 0 1.063-.242c.17-.073.334-.159.486-.268l.081-.056c.016-.008.03-.018.047-.023a.398.398 0 0 1 .234-.02c.02.004.038.008.053.015l.113.043c.171.063.344.115.52.155.71.155 1.462.116 2.142-.195.17-.08.33-.175.479-.291.07-.051.157-.134.2-.172a.257.257 0 0 1 .078-.046.379.379 0 0 1 .221-.013l.232.066c.087.023.175.042.265.059.712.13 1.471.07 2.14-.291.164-.093.321-.201.461-.333.071-.065.136-.134.197-.209l.057-.069c.008-.008.016-.016.029-.024a.324.324 0 0 1 .258-.044l.117.024c.089.017.177.031.267.043.716.09 1.488-.025 2.117-.473a2.14 2.14 0 0 0 .581-.642l.046-.081c.005-.007.01-.017.022-.026a.302.302 0 0 1 .184-.072c.033-.011.275.029.442.03.718.023 1.5-.186 2.032-.766.131-.143.239-.309.32-.486.021-.045.038-.089.057-.135l.038-.112a.133.133 0 0 1 .039-.057.295.295 0 0 1 .187-.074l.236-.001c.09-.003.18-.009.271-.019.716-.073 1.485-.469 1.81-1.2.078-.175.13-.364.153-.55l.007-.046c0-.008.002-.012.004-.019.004-.01.007-.024.014-.035a.191.191 0 0 1 .057-.065.279.279 0 0 1 .096-.044.565.565 0 0 1 .066-.01l.134-.016c.179-.023.359-.064.534-.127.35-.123.678-.338.916-.634.244-.295.382-.672.41-1.044.006-.093.009-.186.003-.276-.003-.067 0-.076.01-.114a.225.225 0 0 1 .14-.138c.025-.01.02-.008.074-.021.044-.01.089-.02.133-.035a2.075 2.075 0 0 0 .74-.37c.295-.233.513-.557.619-.916.109-.357.095-.74.027-1.078a.27.27 0 0 1 .045-.224.277.277 0 0 1 .086-.072l.027-.014.063-.026c.043-.017.083-.037.124-.055.327-.159.62-.42.798-.746.18-.322.255-.695.238-1.052a2.505 2.505 0 0 0-.08-.526c-.02-.084-.05-.174-.074-.247a.386.386 0 0 1-.021-.142.287.287 0 0 1 .106-.219l.025-.018.058-.037a2.043 2.043 0 0 0 .316-.257c.26-.26.425-.606.483-.956a2.41 2.41 0 0 0-.057-1.047 2.921 2.921 0 0 0-.174-.488c-.042-.092-.054-.116-.067-.177a.412.412 0 0 1-.004-.152.357.357 0 0 1 .048-.127c.014-.017.025-.034.04-.048l.093-.086c.129-.126.237-.272.322-.432.17-.32.232-.683.222-1.03a2.845 2.845 0 0 0-.227-1.014 3.553 3.553 0 0 0-.23-.46.512.512 0 0 1-.08-.314c.011-.116.04-.135.166-.315.097-.152.173-.316.222-.487.103-.342.108-.701.057-1.044a3.186 3.186 0 0 0-.32-.98 3.692 3.692 0 0 0-.264-.442c-.057-.08-.083-.116-.107-.168a.52.52 0 0 1-.043-.158.395.395 0 0 1 .01-.154c.014-.047.031-.07.082-.167.08-.158.149-.326.19-.502.085-.348.102-.713.061-1.067a3.646 3.646 0 0 0-.693-1.762c-.025-.037-.027-.051-.037-.083a.273.273 0 0 1 0-.14c0-.002.001-.007.004-.008.001-.002.001.003.011-.03.016-.047.033-.094.044-.142.026-.097.047-.194.063-.292.06-.393.027-.786-.055-1.156a4.007 4.007 0 0 0-1.085-1.939 4.338 4.338 0 0 0-.87-.674l-.825-.498a71.922 71.922 0 0 1-3.24-2.09 55.334 55.334 0 0 1-1.567-1.118L75.588 68c-.264-.19-.515-.4-.79-.576l-.816-.54c-.54-.362-1.073-.736-1.642-1.054-2.224-1.354-4.598-2.484-7.084-3.269-4.955-1.594-10.379-1.77-15.325-.253l.43.272-.005-.03a25.876 25.876 0 0 0-.86-3.832l-.322-.931-.162-.465-.19-.457-.38-.91c-.14-.298-.291-.591-.436-.888-.275-.6-.63-1.16-.952-1.734-.157-.29-.349-.56-.53-.837l-.549-.824a61.86 61.86 0 0 0-1.207-1.573c-.441-.494-.862-1.005-1.319-1.483-1.83-1.913-3.9-3.6-6.133-5.02-.27-.192-.56-.354-.842-.523l-.853-.505c-.288-.164-.565-.346-.86-.496l-.88-.454c-1.177-.616-2.341-1.171-3.483-1.81a71.759 71.759 0 0 1-3.371-1.987l-.417-.26a4.244 4.244 0 0 0-1.485-.6c-.707-.133-1.444-.086-2.122.204-.169.075-.33.164-.483.273-.077.053-.15.113-.22.176l-.05.047-.02.017a.435.435 0 0 1-.303.074c-.023-.002-.044-.008-.063-.012l-.122-.033a5.76 5.76 0 0 0-.264-.056c-.712-.127-1.468-.072-2.15.254-.17.081-.333.185-.482.306a2.048 2.048 0 0 0-.309.31l-.061.076a.278.278 0 0 1-.165.067.44.44 0 0 1-.107-.005 4.596 4.596 0 0 0-.267-.043c-.723-.092-1.504-.003-2.171.413a2.177 2.177 0 0 0-.72.755l-.054.098c-.007.014-.045.048-.105.062a.322.322 0 0 1-.094.009c-.055-.003-.174-.013-.258-.016-.733-.025-1.533.16-2.123.727a2.022 2.022 0 0 0-.484.774l-.042.139c-.01.02-.047.053-.106.069-.008.013-.26.01-.431.037-.732.084-1.518.47-1.87 1.21-.086.18-.141.373-.169.566l-.016.145c-.004.032 0 .031-.005.047a.15.15 0 0 1-.035.072.226.226 0 0 1-.077.062.299.299 0 0 1-.054.021c-.01.004-.02.006-.029.008l-.063.01a2.73 2.73 0 0 0-.528.139c-.344.126-.671.34-.907.631-.24.29-.381.663-.4 1.032-.018.172.023.406.009.455a.282.282 0 0 1-.154.213.277.277 0 0 1-.07.029l-.119.035a2.08 2.08 0 0 0-.249.095 2.06 2.06 0 0 0-.459.277c-.279.228-.494.538-.592.886-.114.343-.1.712-.014 1.052Z" fill="#281400"/><path d="M59.849 104.441c.49.177 1.04.219 1.609.087a2.73 2.73 0 0 0 1.373-.775c.187-.197.483-.292.732-.227.52.133 1.08.126 1.63-.058a2.537 2.537 0 0 0 1.25-.889.79.79 0 0 1 .73-.307 2.778 2.778 0 0 0 1.6-.216c.5-.229.869-.58 1.103-1.006a.774.774 0 0 1 .703-.392 2.675 2.675 0 0 0 1.536-.376c.456-.28.766-.67.932-1.121a.751.751 0 0 1 .654-.477 2.486 2.486 0 0 0 1.438-.539c.404-.331.65-.76.744-1.235a.72.72 0 0 1 .581-.56 2.28 2.28 0 0 0 1.313-.704c.348-.383.52-.848.54-1.343a.706.706 0 0 1 .49-.636 2.127 2.127 0 0 0 1.167-.868c.282-.433.382-.93.332-1.437a.7.7 0 0 1 .389-.7 2.056 2.056 0 0 0 1.002-1.027c.215-.48.242-1.003.123-1.517a.723.723 0 0 1 .28-.75c.394-.272.688-.668.828-1.18a2.6 2.6 0 0 0-.084-1.576.748.748 0 0 1 .174-.78c.345-.332.578-.777.648-1.32a2.832 2.832 0 0 0-.279-1.61.777.777 0 0 1 .075-.79c.294-.388.465-.877.472-1.444a3.034 3.034 0 0 0-.457-1.615.799.799 0 0 1-.015-.778c.242-.439.355-.968.302-1.551-.005-.056-.02-.107-.028-.162.141.239.256.495.337.77.163.559.156 1.075.007 1.513a.81.81 0 0 0 .165.754c.376.445.65.971.761 1.541.109.556.04 1.046-.171 1.44-.112.21-.081.509.083.736.343.477.57 1.015.616 1.57.045.537-.089.984-.356 1.326-.15.19-.155.489-.005.74.295.493.457 1.024.43 1.547-.026.507-.225.908-.55 1.19-.187.163-.234.455-.108.723.235.501.328 1.018.227 1.499-.1.47-.366.819-.748 1.04-.223.13-.316.41-.222.685.169.496.187.989.01 1.424-.175.43-.508.721-.942.884a.54.54 0 0 0-.338.629c.097.485.038.945-.214 1.33-.25.384-.646.619-1.124.72a.54.54 0 0 0-.448.558c.021.467-.115.891-.437 1.222-.324.332-.778.509-1.291.55-.295.025-.518.218-.549.477a1.552 1.552 0 0 1-.654 1.103c-.395.282-.893.399-1.434.381-.3-.01-.554.153-.63.394-.132.412-.414.755-.86.978-.457.228-.993.292-1.547.218-.296-.039-.575.089-.691.308-.203.38-.55.681-1.046.852-.511.178-1.072.187-1.63.061-.282-.063-.575.031-.725.226-.27.35-.674.608-1.209.729a3.215 3.215 0 0 1-1.674-.09c-.262-.083-.557-.02-.734.15-.33.318-.786.535-1.346.61a3.303 3.303 0 0 1-1.664-.225.798.798 0 0 0-.76.087c-.38.278-.865.451-1.432.479-.002-.001-.004 0-.007.001-.51.023-.996-.3-1.436-.791l-.269-.299c.21-.181.498-.243.728-.161ZM5.802 48.643c-.114-.474-.072-.931.168-1.322.24-.393.63-.645 1.111-.764a.537.537 0 0 0 .424-.575c-.04-.46.08-.886.395-1.229.318-.347.77-.54 1.292-.603.29-.035.502-.236.524-.493.037-.44.238-.83.62-1.121.391-.298.898-.435 1.453-.438.295 0 .54-.169.607-.408.117-.416.394-.767.84-1.006.461-.249 1.013-.33 1.584-.276.29.028.557-.106.666-.322.194-.388.541-.7 1.046-.89.52-.197 1.103-.224 1.684-.117.276.05.56-.05.702-.241.265-.359.679-.632 1.228-.772a3.423 3.423 0 0 1 1.72.026c.272.072.573-.001.753-.175.11-.106.24-.198.38-.283a2.495 2.495 0 0 0-.19.222.8.8 0 0 1-.709.32 3.027 3.027 0 0 0-1.656.28c-.51.25-.88.614-1.104 1.046a.783.783 0 0 1-.682.406 2.838 2.838 0 0 0-1.575.44 2.193 2.193 0 0 0-.916 1.15.749.749 0 0 1-.63.491 2.591 2.591 0 0 0-1.461.601c-.403.346-.635.78-.712 1.253a.72.72 0 0 1-.558.574c-.516.114-.977.362-1.32.762a2.05 2.05 0 0 0-.499 1.345.709.709 0 0 1-.465.65 2.2 2.2 0 0 0-1.158.917c-.269.438-.352.93-.284 1.426a.706.706 0 0 1-.365.714c-.439.23-.783.587-.982 1.064-.198.48-.21.99-.075 1.487a.724.724 0 0 1-.256.765 2.09 2.09 0 0 0-.798 1.201c-.129.516-.07 1.04.13 1.53a.752.752 0 0 1-.15.794c-.339.341-.56.789-.615 1.322a2.664 2.664 0 0 0 .319 1.547.773.773 0 0 1-.053.803 2.346 2.346 0 0 0-.437 1.427c.008.565.19 1.088.49 1.536a.786.786 0 0 1 .036.791 2.534 2.534 0 0 0-.267 1.51c.068.578.304 1.087.647 1.496a.776.776 0 0 1 .108.757 2.739 2.739 0 0 0-.111 1.572c.124.57.398 1.05.768 1.415.179.176.248.477.177.748-.014.052-.02.104-.028.156-.52-.189-.923-.47-1.093-.877a.06.06 0 0 0-.005-.017c-.214-.518-.266-1.028-.177-1.485a.8.8 0 0 0-.247-.722 3.275 3.275 0 0 1-.918-1.406c-.174-.538-.172-1.042-.025-1.476.08-.232.008-.527-.18-.727-.39-.42-.677-.92-.798-1.473-.119-.532-.06-1.011.14-1.403.112-.22.071-.524-.107-.752-.35-.448-.585-.96-.643-1.496-.056-.52.065-.964.322-1.31.147-.199.144-.506-.018-.756-.301-.47-.477-.98-.466-1.49.011-.497.199-.9.515-1.195.185-.172.222-.47.085-.738-.246-.48-.354-.982-.27-1.457.084-.471.342-.827.717-1.064.22-.14.303-.424.196-.7-.183-.481-.219-.964-.056-1.4.161-.436.487-.74.917-.92a.55.55 0 0 0 .295-.645Z" fill="#E8B17E"/><g opacity=".5"><path opacity=".5" d="M55.204 94.375C48.329 90.03 46.412 80.729 50.92 73.6c4.51-7.13 13.737-9.387 20.612-5.043 6.874 4.344 8.792 13.646 4.282 20.775-4.509 7.13-13.737 9.387-20.611 5.043ZM19.126 71.532c-6.874-4.344-8.792-13.645-4.282-20.775 4.509-7.13 13.737-9.387 20.611-5.042 6.875 4.344 8.792 13.645 4.283 20.774-4.51 7.13-13.737 9.387-20.612 5.043Z" fill="#E8B17E"/></g><path d="M54.807 91.53c-6.276-3.966-8.25-12.107-4.407-18.183 3.843-6.076 12.046-7.786 18.323-3.82 6.277 3.968 8.25 12.109 4.408 18.185-3.843 6.076-12.047 7.786-18.324 3.819Z" fill="#492100"/><path d="M49.838 72.991a13.287 13.287 0 0 0-1.812 5.017 13.626 13.626 0 0 0 .288 5.34 14.027 14.027 0 0 0 2.32 4.851 14.306 14.306 0 0 0 3.976 3.64 14.437 14.437 0 0 0 5.016 1.904c1.762.31 3.574.271 5.302-.104a13.217 13.217 0 0 0 4.786-2.093c1.43-.996 2.626-2.291 3.553-3.748.915-1.464 1.585-3.093 1.889-4.813.311-1.716.25-3.509-.147-5.234a13.868 13.868 0 0 0-2.18-4.85 14.262 14.262 0 0 0-3.886-3.729 14.361 14.361 0 0 0-5.016-2.029 14.101 14.101 0 0 0-5.396-.009c-3.54.683-6.774 2.82-8.693 5.857Zm1.125.711c.879-1.364 1.99-2.585 3.331-3.522a12.382 12.382 0 0 1 4.494-1.977 12.966 12.966 0 0 1 4.986-.108c1.662.285 3.273.899 4.724 1.787a13.508 13.508 0 0 1 3.741 3.429 13.223 13.223 0 0 1 2.183 4.568c.838 3.277.375 6.88-1.432 9.744-1.811 2.856-4.842 4.868-8.182 5.512-3.337.667-6.944-.038-9.805-1.917a13.525 13.525 0 0 1-3.65-3.517 13.04 13.04 0 0 1-2.044-4.566 12.39 12.39 0 0 1-.133-4.918 12.15 12.15 0 0 1 1.787-4.515Z" fill="#281400"/><path d="M56.228 89.281c-3.426-2.164-3.724-7.838-.667-12.671 3.058-4.834 8.315-6.997 11.74-4.833 3.427 2.165 3.726 7.838.668 12.672-3.058 4.834-8.314 6.997-11.74 4.832Z" fill="#F7931E"/><path d="M55.416 76.518c-1.253 1.96-2.121 4.217-2.233 6.606-.05 1.188.096 2.411.547 3.559.444 1.143 1.23 2.207 2.302 2.908 1.08.69 2.38.982 3.623.922 1.25-.051 2.448-.426 3.527-.972 2.16-1.108 3.906-2.842 5.178-4.844a15.368 15.368 0 0 0 1.51-3.225c.373-1.132.604-2.32.623-3.53.02-1.205-.16-2.44-.645-3.585-.476-1.142-1.293-2.184-2.372-2.856-1.088-.66-2.374-.91-3.59-.824-1.225.083-2.388.471-3.436 1.024a12.146 12.146 0 0 0-2.828 2.1c-.839.825-1.556 1.75-2.206 2.717Zm.29.183a12.815 12.815 0 0 1 2.175-2.63 11.813 11.813 0 0 1 2.79-1.954c1.02-.503 2.13-.834 3.258-.88 1.124-.049 2.26.214 3.197.817.929.615 1.617 1.539 2.02 2.57.408 1.033.551 2.163.504 3.277-.102 2.236-.889 4.409-2.078 6.3-1.227 1.863-2.828 3.526-4.818 4.554-.99.508-2.068.855-3.17.932-1.098.077-2.218-.147-3.162-.717-.934-.585-1.656-1.485-2.092-2.516-.441-1.03-.619-2.171-.604-3.303.041-2.273.81-4.496 1.98-6.45Z" fill="#281400"/><path d="M58.577 85.57c-1.714-1.083-1.675-4.217.086-7 1.76-2.784 4.578-4.163 6.291-3.08 1.714 1.082 1.675 4.217-.086 7-1.761 2.784-4.578 4.163-6.291 3.08Z" fill="#000"/><path d="M66.043 78.763c-.896-.567-1.21-1.678-.701-2.483.509-.805 1.648-.998 2.544-.431.897.566 1.21 1.678.702 2.483-.509.805-1.648.998-2.545.431ZM62.447 77.608c-.326-.206-.44-.61-.255-.902.185-.293.599-.363.924-.157.326.206.44.61.255.902-.185.293-.599.363-.924.157Z" fill="#fff"/><path d="M21.864 70.674c-6.277-3.967-8.25-12.108-4.407-18.184 3.842-6.076 12.046-7.786 18.323-3.82 6.277 3.968 8.25 12.11 4.407 18.185-3.842 6.076-12.046 7.786-18.323 3.819Z" fill="#492100"/><path d="M17.317 52.401a12.466 12.466 0 0 0-1.918 4.808 13.256 13.256 0 0 0 .166 5.241 13.914 13.914 0 0 0 2.191 4.85 14.267 14.267 0 0 0 8.905 5.735c1.778.346 3.617.346 5.384-.001a13.547 13.547 0 0 0 4.94-2.046 13.223 13.223 0 0 0 3.73-3.8c1.94-3.016 2.473-6.854 1.573-10.337a14.038 14.038 0 0 0-2.316-4.861 14.272 14.272 0 0 0-9.005-5.56 13.874 13.874 0 0 0-5.313.11 13.243 13.243 0 0 0-4.79 2.101 12.979 12.979 0 0 0-3.547 3.76Zm.28.177a12.516 12.516 0 0 1 3.525-3.576 12.804 12.804 0 0 1 4.661-1.917c1.666-.325 3.4-.32 5.07.01 1.673.329 3.281.985 4.715 1.91 1.43.93 2.676 2.124 3.648 3.504a12.97 12.97 0 0 1 2.046 4.558 12.43 12.43 0 0 1 .142 4.916 12.759 12.759 0 0 1-1.745 4.538 12.216 12.216 0 0 1-3.34 3.538 12.477 12.477 0 0 1-4.513 1.972 13.02 13.02 0 0 1-4.999.098 13.43 13.43 0 0 1-4.726-1.8 13.502 13.502 0 0 1-3.736-3.438 13.167 13.167 0 0 1-2.171-4.569c-.85-3.289-.305-6.845 1.423-9.744Z" fill="#281400"/><path d="M23.285 68.424c-3.427-2.165-3.725-7.838-.667-12.672 3.057-4.833 8.314-6.997 11.74-4.832s3.725 7.838.667 12.672c-3.058 4.833-8.314 6.997-11.74 4.832Z" fill="#F7931E"/><path d="M22.1 55.425c-1.232 2.051-2.03 4.395-2.066 6.831-.014 1.212.184 2.452.68 3.597.492 1.14 1.318 2.179 2.4 2.842 1.09.653 2.373.901 3.587.809 1.221-.086 2.377-.481 3.424-1.032a12.134 12.134 0 0 0 2.834-2.084 14.917 14.917 0 0 0 2.205-2.711c1.226-1.977 2.061-4.234 2.167-6.605.043-1.18-.09-2.393-.538-3.53-.438-1.134-1.21-2.185-2.267-2.886-1.061-.692-2.35-.994-3.593-.948-1.247.043-2.45.395-3.541.926-2.187 1.078-3.956 2.808-5.291 4.791Zm1.041.658c1.16-1.881 2.742-3.551 4.703-4.61.976-.526 2.049-.895 3.153-.98 1.1-.089 2.23.123 3.195.69.95.587 1.681 1.502 2.124 2.539.447 1.04.635 2.192.612 3.33-.047 2.29-.847 4.513-2.042 6.449-1.239 1.91-2.906 3.584-4.955 4.606-1.022.504-2.139.832-3.27.874-1.128.045-2.266-.222-3.2-.828-.925-.626-1.6-1.553-1.993-2.584-.397-1.032-.522-2.158-.47-3.263.114-2.225.952-4.362 2.143-6.223Z" fill="#281400"/><path d="M25.633 64.713c-1.714-1.083-1.675-4.217.086-7.001 1.761-2.784 4.578-4.163 6.291-3.08 1.714 1.082 1.675 4.217-.086 7-1.761 2.784-4.578 4.163-6.291 3.08Z" fill="#000"/><path d="M33.1 57.906c-.897-.567-1.21-1.678-.702-2.483.51-.805 1.648-.998 2.545-.432.896.567 1.21 1.679.702 2.484-.51.804-1.649.997-2.545.43ZM29.506 56.752c-.326-.206-.44-.61-.256-.902.185-.292.6-.363.925-.157.326.206.44.61.255.903-.185.292-.599.362-.924.156Z" fill="#fff"/><path opacity=".5" d="M34.586 73.5a29.691 29.691 0 0 0 2.073-.69l2.2-.825c3.294-1.237 7.184 1.223 7.48 4.728l.197 2.342c.061.724.15 1.448.267 2.168l.847 5.241c.272 1.685-.909 3.143-2.64 3.239-2.861-4.208-4.204-8.467-4.464-12.105-3.399 1.328-7.822 1.941-12.849 1.159-.655-1.607.154-3.297 1.794-3.774l5.095-1.484Z" fill="#E8B17E"/><path opacity=".5" d="M40.52 77.624c.397 5.552 3.292 12.55 10.302 18.597 2.335 2.013 4.457 4.158 6.44 6.293a42.423 42.423 0 0 1-7.285-.474c-.36-.054-1.134-2.3-1.307-2.696a27.932 27.932 0 0 0-1.786-3.38c-1.346-2.184-2.947-4.21-4.608-6.175-1.622-1.92-3.326-3.808-5.387-5.256-3.623-2.547-7.834-3.259-11.947-4.532a42.587 42.587 0 0 0-5.675-1.326c-.61-.1-2.3-.568-2.824-.051-.919.91 1.973 6.014 1.973 6.014-3.19-3.601-5.704-7.486-7.465-11.446 2.75.87 5.565 1.86 8.356 3.092 8.47 3.748 16.03 3.363 21.214 1.34Z" fill="#9B4F1C"/><path d="M36.11 88.094s-4.97-4.97-3.145-8.9c1.153-2.481 3.804-1.305 5.603-.102 1.177.788 1.72 2.159 1.324 3.374-.542 1.674-1.646 4.052-3.782 5.628Z" fill="#CC9466"/><path d="M36.121 87.936a.106.106 0 0 1 .066.015c.01.006.02.012.026.019l-.004-.006-.017-.02-.033-.043-.066-.083-.133-.166-.261-.336c-.17-.228-.345-.452-.508-.681-.327-.464-.643-.93-.934-1.41-.29-.48-.558-.971-.8-1.474a8.26 8.26 0 0 1-.596-1.556c-.292-1.07-.186-2.243.346-3.192.259-.472.66-.866 1.171-1.042.51-.186 1.089-.13 1.63.007.544.141 1.069.376 1.569.647.25.135.497.283.736.44.247.152.465.317.666.512.81.767 1.16 1.987.748 3.007a13.01 13.01 0 0 1-1.446 2.996c-.308.46-.652.897-1.03 1.302a8.11 8.11 0 0 1-.593.58c-.102.083-.222.19-.306.256-.083.063-.153.14-.23.228Zm-.021.32c.143-.086.295-.184.431-.293.137-.108.219-.196.333-.294a8.77 8.77 0 0 0 .602-.606c.382-.42.73-.875 1.038-1.35a13.245 13.245 0 0 0 1.454-3.061 2.815 2.815 0 0 0 .08-1.73 3.257 3.257 0 0 0-.904-1.51 4.101 4.101 0 0 0-.705-.537 11.494 11.494 0 0 0-.751-.446c-.513-.276-1.05-.518-1.621-.667-.564-.143-1.186-.205-1.753-.009-.573.188-1.024.626-1.304 1.13-.59 1.01-.661 2.23-.493 3.374.087.578.248 1.145.455 1.694.214.548.487 1.07.795 1.567.306.5.653.973 1.027 1.422.188.225.374.447.58.658l.308.311.158.153.084.073.041.037.021.019.006.003c.01.01.023.02.036.029a.19.19 0 0 0 .082.033Z" fill="#281400"/><path d="M36.344 86.407s-4.107-4.107-2.6-7.353c.952-2.052 3.145-1.079 4.63-.085.97.65 1.42 1.784 1.094 2.787-.448 1.384-1.358 3.349-3.124 4.651Z" fill="#A50E0E"/><path d="M38.86 90.387s6.176-5.19 5.489-10.637c-.688-5.447-2.222-6.795-6.528-4.964-4.306 1.832-5.52 4.404-2.525 5.555 2.992 1.149 4.187 7.1 3.563 10.046Z" fill="#E8B17E"/><path d="M38.778 90.524c.04.026.145.024.192-.017.033-.027.018-.016.03-.026l.031-.028.06-.056.122-.116.241-.231.469-.472c.311-.316.613-.64.906-.974a22.737 22.737 0 0 0 1.656-2.08c.519-.721 1.02-1.467 1.408-2.281a9.019 9.019 0 0 0 .765-2.612 7.32 7.32 0 0 0 .06-1.382c-.038-.471-.098-.911-.174-1.356-.15-.889-.34-1.78-.67-2.65a5.44 5.44 0 0 0-.659-1.256c-.28-.39-.67-.742-1.127-.947-.46-.21-.96-.27-1.432-.244a5.713 5.713 0 0 0-1.365.25c-.87.267-1.69.634-2.483 1.05-.787.423-1.55.903-2.202 1.522-.32.313-.62.655-.825 1.064-.211.398-.313.894-.152 1.353.156.459.527.801.92 1.041.199.121.407.224.621.309.213.087.406.175.596.29.753.465 1.312 1.2 1.736 1.975.421.784.719 1.627.943 2.484.22.857.358 1.735.411 2.613.026.44.03.879.008 1.315-.011.219-.03.436-.057.65-.012.108-.032.214-.046.32-.004.038-.03.155-.022.242.003.097.024.183.039.25Zm.165-.274c.033-.04.077-.062.1-.076.025-.024.026-.012.035-.086.014-.112.031-.225.039-.335a9.27 9.27 0 0 0 .042-.674c.011-.45-.004-.896-.042-1.346a16.086 16.086 0 0 0-.461-2.65c-.237-.867-.549-1.722-.99-2.518-.44-.787-1.005-1.55-1.802-2.044a4.657 4.657 0 0 0-.623-.304 4.12 4.12 0 0 1-.593-.294c-.373-.227-.705-.542-.839-.942-.138-.398-.054-.839.144-1.211.192-.381.488-.704.803-1 .637-.588 1.4-1.042 2.192-1.42.791-.378 1.62-.701 2.463-.92a5.748 5.748 0 0 1 1.275-.19c.423-.008.84.058 1.202.24.735.356 1.176 1.14 1.46 1.945.286.814.447 1.68.575 2.548.066.434.118.877.148 1.293.003.423.002.848-.061 1.268-.099.845-.372 1.661-.676 2.463-.311.8-.676 1.595-1.136 2.335a17.848 17.848 0 0 1-2.473 3.05c-.155.155-.314.304-.477.45l-.244.22-.124.106-.063.052-.032.025s-.025.018-.001.001c.034-.028.128-.019.16.014Z" fill="#281400"/><path opacity=".7" d="M41.073 79.379s.164-2.958-1.185-3.151c-1.349-.193 1.185 3.15 1.185 3.15Z" fill="#E8B17E"/><path opacity=".7" d="M39.889 76.228c1.004.143 1.17 1.817 1.189 2.664-.405-.56-1.427-2.032-1.415-2.653a.514.514 0 0 1 .226-.011Z" fill="#E8B17E"/><path opacity=".5" d="M35.196 90.226c-.523-.15-1.045-.217-1.566-.262a14.054 14.054 0 0 0-1.557-.037l.343.257a12.48 12.48 0 0 0-.42-1.194 8.775 8.775 0 0 0-.263-.583 5.846 5.846 0 0 0-.318-.571c-.008.218.003.432.017.644.018.21.038.423.072.63.06.419.146.828.248 1.236a.34.34 0 0 0 .326.257h.017c.518.004 1.037-.025 1.553-.077.52-.057 1.036-.135 1.548-.3Z" fill="#9B4F1C"/><path opacity=".4" d="M76.865 69.23c-10.869-8.808-20.544-8.688-26.767-6.695-.87-6.48-4.911-15.277-17.524-21.325-2.109-1.029-4.146-2.218-6.125-3.465a3.742 3.742 0 0 0-.78-.37c.965-.602 1.288-1.873.728-3.008a63.91 63.91 0 0 1-1.354-2.92 55.618 55.618 0 0 1-1.975-5.192c-.066-.207.19-.344.356-.187.755.714 1.51 1.451 2.267 2.193.19.186.492.028.408-.215a45.208 45.208 0 0 1-.629-1.97c-.445-1.505-.91-4.049-1.15-5.434-.05-.292.322-.43.53-.198.6.666 1.437 1.597 1.871 2.084.645.723 1.281 1.438 1.915 2.138a232.496 232.496 0 0 0 2.597 2.808c-.977-.32-1.997-.42-2.713.214-.459.405-.66 1.027-.76 1.633-.695 4.249 2.722 8.22 6.44 10.59 3.717 2.37 8.035 3.922 11.139 7.046 2.408 2.422 3.87 5.578 5.712 8.439.616.96 1.31 1.919 2.29 2.514 1.367.831 3.049.827 4.633.99 9.614.985 17.449 8.848 26.986 10.51 1.77.309 3.56.397 5.347.487l.752.04c.214.012.43.026.644.037.924.34 1.844.679 2.746 1.029.213.082.2.374-.014.403a56.352 56.352 0 0 1-5.526.435 62.196 62.196 0 0 1-3.23.025c-1.296-.022-2.25.863-2.313 2.036a3.721 3.721 0 0 0-.751-.63c-1.971-1.247-3.917-2.578-5.75-4.042Z" fill="#9B4F1C"/><path opacity=".5" d="M73.339 56.642c-.673.25-1.311.563-1.934.897l.252.162c.104-1.012.173-2.028.104-3.06-.25.997-.36 2.007-.438 3.023v.005c-.006.091.062.171.152.178a.172.172 0 0 0 .1-.02c.61-.36 1.204-.741 1.764-1.185ZM51.304 50.639c-.685.147-1.33.394-1.963.667l.242.14c-.078-.664-.181-1.326-.39-1.973-.066.683-.024 1.353.039 2.019.01.095.095.165.19.152a.208.208 0 0 0 .053-.014c.63-.28 1.25-.584 1.83-.991ZM85.674 67.55c-.567.123-1.101.326-1.625.552l.2.116c-.064-.55-.15-1.095-.323-1.633-.054.564-.02 1.119.033 1.667a.141.141 0 0 0 .158.127.106.106 0 0 0 .043-.013c.523-.228 1.038-.481 1.514-.816ZM37.812 34.836c-.133.673-.19 1.352-.228 2.032v.002a.108.108 0 0 0 .143.107c.53-.201 1.055-.419 1.56-.688-.562.123-1.103.299-1.64.49l.145.108c.05-.682.072-1.364.02-2.051Z" fill="#E8B17E"/><path opacity=".3" d="M52.662 39.58a54.45 54.45 0 0 1 6.493 3.088c.925-.206.748-1.85.496-3.015-.088-.408.42-.694.688-.388 1.106 1.265 1.196 3.18 1.167 4.106a.907.907 0 0 0 .442.819c.33.192.76.05.947-.305 1.417-2.686 3.598-2.855 5.013-2.615.261.045.257.423-.002.496-2.506.704-2.899 4.418-2.899 4.418l-.047.22.203.149c.633.469.702 1.374.152 1.91-.046.044-.091.089-.141.133-1.6 1.48-4.138 1.418-5.807-.071-2.096-1.872-5.18-4.749-7.675-7.593-.603-.693.117-1.691.97-1.351Z" fill="#9B4F1C"/><path d="M-18.58 66.737c13.613-3.86 25.033 4.626 25.033 4.626s-.157.44-.453 1.25c-9.492 4.668-18.382 12.539-25.012 23.016-9.159 14.474-11.973 30.703-8.886 44.079-3.651 2.956-6.878 2.829-9.213-2.196-11.303-24.339 4.916-66.915 18.53-70.775Z" fill="#60300F"/><path d="M-34.527 141.329a4.2 4.2 0 0 0 1.265.544c1.639.399 3.514-.245 5.575-1.914a.314.314 0 0 0 .108-.316c-3.21-13.904.014-29.882 8.846-43.838 6.41-10.13 15.015-18.048 24.885-22.902a.304.304 0 0 0 .157-.175c.297-.812.454-1.252.454-1.252a.328.328 0 0 0-.115-.37c-.116-.087-11.71-8.542-25.324-4.682-5.054 1.434-10.547 7.969-15.067 17.934-6.986 15.398-10.827 37.847-3.66 53.281.817 1.764 1.78 2.999 2.876 3.69Zm6.266-1.752c-1.836 1.446-3.47 2.008-4.86 1.67-1.418-.344-2.66-1.644-3.69-3.863-7.082-15.248-3.261-37.48 3.665-52.75 4.379-9.65 9.86-16.224 14.664-17.587 12.337-3.499 22.972 3.35 24.543 4.433-.067.188-.176.493-.326.901-9.927 4.908-18.577 12.885-25.024 23.073-8.882 14.032-12.145 30.101-8.972 44.123Z" fill="#281400"/><path d="M-18.564 66.736c13.616-3.86 25.036 4.627 25.036 4.627s-.157.44-.453 1.25c-9.493 4.668-18.383 12.54-25.013 23.017-7.357 11.625-10.616 24.379-10.017 35.878-1.292 2.774-3.642 2.608-7.916-7.539 0 0-.034 4.505-.883 7.603-.248.906-2.157 1.332-2.658.513-14.686-24.05 9.31-61.778 21.905-65.349Z" fill="#7A421C"/><path d="M-18.434 67.145a26.7 26.7 0 0 1 6.323-.998 28.96 28.96 0 0 1 3.226.074c1.075.095 2.145.245 3.21.446a33.658 33.658 0 0 1 9.174 3.274c.957.507 1.909 1.066 2.778 1.679l-.115-.37-.452 1.249.156-.173C.407 75.027-4.565 78.608-8.933 82.783c-4.368 4.18-8.136 8.958-11.23 14.133-3.093 5.175-5.535 10.751-7.133 16.586-1.589 5.833-2.351 11.922-2.042 18.014l.03-.149c-.228.475-.512.945-.896 1.192-.375.25-.826.176-1.263-.103-.43-.282-.819-.683-1.166-1.115a14.528 14.528 0 0 1-.965-1.381 32.465 32.465 0 0 1-1.624-2.994 66.774 66.774 0 0 1-1.403-3.118.338.338 0 0 0-.428-.184.314.314 0 0 0-.2.29l-.001.002a34.829 34.829 0 0 1-.32 5.346 21.312 21.312 0 0 1-.364 1.964c-.027.099-.049.235-.083.303a.691.691 0 0 1-.141.226c-.25.285-.67.451-1.077.507-.4.055-.866-.018-1.046-.308-1.904-3.082-3.137-6.558-3.758-10.084-.628-3.533-.671-7.129-.35-10.665.325-3.54.997-7.042 1.973-10.454 1.98-6.818 5.01-13.325 8.89-19.269 1.945-2.966 4.109-5.799 6.564-8.356 1.233-1.271 2.533-2.482 3.943-3.538 1.407-1.046 2.93-1.989 4.59-2.483Zm-.258-.816c-1.83.529-3.423 1.504-4.893 2.578-1.474 1.08-2.817 2.307-4.091 3.592-2.536 2.585-4.762 5.437-6.767 8.428a72.275 72.275 0 0 0-5.312 9.402 65.839 65.839 0 0 0-3.81 10.126c-.986 3.476-1.692 7.054-1.922 10.688-.23 3.63.006 7.311.797 10.885.794 3.575 2.144 7.028 4.071 10.182.162.249.432.396.684.455.257.062.511.063.755.032.246-.029.483-.103.705-.202a1.73 1.73 0 0 0 .608-.434c.083-.097.164-.207.207-.34a.897.897 0 0 0 .056-.178l.044-.164c.06-.22.115-.438.161-.662.101-.441.184-.886.256-1.333.284-1.789.445-3.584.537-5.4l.002-.002-.63.108a67.712 67.712 0 0 0 1.418 3.151 32.798 32.798 0 0 0 1.657 3.057c.31.494.638.982 1.011 1.446.375.461.793.909 1.33 1.262.275.171.59.314.95.353.359.042.738-.061 1.021-.248.573-.383.867-.932 1.126-1.457a.273.273 0 0 0 .029-.14v-.008c-.306-6.016.449-12.042 2.021-17.815 1.583-5.776 4.001-11.301 7.068-16.43 3.064-5.13 6.8-9.865 11.126-14.003 4.323-4.135 9.245-7.68 14.64-10.348v-.002a.314.314 0 0 0 .156-.172l.454-1.253a.325.325 0 0 0-.115-.37l-.002-.001a26.234 26.234 0 0 0-2.853-1.755 35.213 35.213 0 0 0-3.005-1.443 33.928 33.928 0 0 0-6.351-1.975 32.34 32.34 0 0 0-3.293-.482 30.323 30.323 0 0 0-3.32-.103 27.378 27.378 0 0 0-6.526.975Z" fill="#281400"/><path d="M-18.55 66.734c13.612-3.86 25.03 4.626 25.03 4.626s-.157.44-.453 1.25c-9.491 4.666-18.38 12.537-25.008 23.013-3.863 6.105-6.594 12.523-8.233 18.906-2.424 1.999-4.377 1.284-3.541-7.797 0 0-12.206 23.458-11.798-.104-1.443-20.603 15.364-37.445 24.003-39.894Z" fill="#9B4F1C"/><path d="M-18.362 67.332a26.51 26.51 0 0 1 6.27-1.04 28.616 28.616 0 0 1 3.21.048c1.07.084 2.136.226 3.197.42a33.178 33.178 0 0 1 6.22 1.833c1.008.407 1.996.862 2.96 1.364.96.501 1.915 1.052 2.789 1.656l-.115-.37-.452 1.249.156-.173a58.821 58.821 0 0 0-11.6 7.596 65.802 65.802 0 0 0-5.063 4.716 72.52 72.52 0 0 0-4.53 5.219 76.253 76.253 0 0 0-3.971 5.648 70.08 70.08 0 0 0-3.39 6.015 65.692 65.692 0 0 0-4.848 12.929l.103-.164c-.359.289-.738.563-1.135.72-.4.162-.791.176-1.07-.051-.292-.223-.494-.645-.624-1.077a7.939 7.939 0 0 1-.267-1.372c-.1-.942-.114-1.9-.086-2.856.029-.958.094-1.917.181-2.872a.333.333 0 0 0-.288-.361.318.318 0 0 0-.317.15l-.014.02a84.23 84.23 0 0 1-3.437 5.309 31.725 31.725 0 0 1-1.938 2.459c-.684.768-1.433 1.508-2.266 1.976-.413.229-.85.355-1.212.29a1.247 1.247 0 0 1-.508-.247c-.16-.123-.301-.307-.433-.497-.261-.392-.448-.871-.598-1.362a12.425 12.425 0 0 1-.355-1.519c-.366-2.076-.394-4.219-.462-6.349l-.001-.024a35.03 35.03 0 0 1-.091-1.539 8.039 8.039 0 0 1-.003-.77l.019-.77c.007-.256.01-.512.022-.767l.059-.765c.043-.51.066-1.021.143-1.528.224-2.032.64-4.037 1.214-5.99 1.138-3.909 2.851-7.626 5.017-11.049a49.934 49.934 0 0 1 7.613-9.417 40.17 40.17 0 0 1 4.62-3.91c1.647-1.148 3.405-2.19 5.281-2.778Zm-.376-1.195c-2.116.605-3.98 1.659-5.739 2.82-1.748 1.18-3.361 2.526-4.874 3.968-3.008 2.904-5.557 6.243-7.674 9.82-2.098 3.59-3.71 7.468-4.714 11.504-.502 2.017-.87 4.07-1.039 6.148-.063.515-.072 1.039-.1 1.56l-.038.778c-.005.26 0 .522 0 .782-.02 1.042.066 2.083.067 3.126v-.024c-.116 2.147-.1 4.31.203 6.488.076.545.187 1.091.333 1.636.15.545.34 1.094.665 1.62.169.259.358.521.625.742.262.218.59.397.946.474.725.142 1.372-.088 1.893-.356 1.044-.575 1.82-1.374 2.554-2.179.729-.813 1.366-1.687 1.977-2.571.611-.885 1.174-1.8 1.703-2.731a36.768 36.768 0 0 0 1.485-2.851l-.619-.191a48.243 48.243 0 0 0-.183 2.913c-.03.976-.015 1.958.088 2.947.058.494.142.992.293 1.49.076.248.17.497.304.739.127.241.308.481.555.672.247.192.573.306.879.31a2.15 2.15 0 0 0 .84-.167c.506-.201.915-.505 1.306-.819a.297.297 0 0 0 .103-.158v-.005a64.86 64.86 0 0 1 4.803-12.803 69.506 69.506 0 0 1 3.36-5.96A75.776 75.776 0 0 1-14.8 90.26a72.65 72.65 0 0 1 4.487-5.169 65.748 65.748 0 0 1 5.016-4.67 58.283 58.283 0 0 1 11.472-7.516h.003a.314.314 0 0 0 .156-.173l.454-1.252a.327.327 0 0 0-.116-.37 26.666 26.666 0 0 0-2.839-1.776A33.858 33.858 0 0 0 .836 67.87a34.068 34.068 0 0 0-6.351-2.029 33.457 33.457 0 0 0-3.302-.51 30.303 30.303 0 0 0-3.334-.127 27.286 27.286 0 0 0-6.587.933Z" fill="#281400"/><path d="M-16.313 64.51c12.72-2.576 22.79 6.834 22.79 6.834s-.157.44-.453 1.25c-9.485 4.664-18.368 12.531-24.993 23.003a71.855 71.855 0 0 0-1.1 1.803c-3.02 2.019-5.478 1.56-2.57-9.169 0 0-18.09 20.197-6.366-10.852 1.837-4.863 6.309-11.277 12.692-12.87Z" fill="#A55D2B"/><path d="M-16.227 64.851a21.954 21.954 0 0 1 5.975-.193c1.99.205 3.962.588 5.88 1.198 1.919.604 3.779 1.416 5.565 2.371 1.771.97 3.505 2.08 5.063 3.35l-.087-.347-.45 1.248.154-.173C.356 75.036-4.663 78.665-9.063 82.898c-4.403 4.238-8.188 9.088-11.288 14.335l.096-.1c-.457.298-.93.58-1.423.748-.487.174-1.007.213-1.317-.06-.329-.262-.488-.797-.557-1.317-.072-.529-.067-1.08-.034-1.628.068-1.1.256-2.203.48-3.295.225-1.093.494-2.178.785-3.257a.331.331 0 0 0-.234-.4.32.32 0 0 0-.33.092c-1.417 1.402-2.85 2.812-4.374 4.087-.767.63-1.564 1.231-2.42 1.695-.427.228-.873.425-1.315.506-.447.091-.851.02-1.114-.257-.276-.28-.415-.749-.483-1.215a7.47 7.47 0 0 1-.047-1.46c.048-.988.213-1.98.407-2.963.403-1.965.96-3.901 1.562-5.82a106.602 106.602 0 0 1 2.006-5.688c.732-1.866 1.755-3.607 2.916-5.233 1.2-1.601 2.587-3.068 4.18-4.268 1.602-1.179 3.422-2.093 5.34-2.549Zm-.176-.684c-2.038.569-3.862 1.591-5.46 2.867-1.576 1.303-2.942 2.823-4.118 4.468-.574.831-1.137 1.675-1.614 2.565-.256.435-.467.896-.704 1.344-.21.459-.439.911-.622 1.385-.751 1.876-1.427 3.771-2.086 5.68-.65 1.911-1.259 3.839-1.719 5.82-.226.991-.424 1.992-.501 3.027a7.905 7.905 0 0 0 .008 1.578c.07.528.184 1.108.62 1.6.22.238.527.413.84.482.315.075.62.055.902.012.567-.096 1.064-.311 1.534-.55.936-.487 1.772-1.093 2.574-1.728a30.409 30.409 0 0 0 4.359-4.263l-.563-.308a55.908 55.908 0 0 0-.794 3.296c-.227 1.111-.42 2.234-.493 3.384a9.12 9.12 0 0 0 .04 1.756c.034.297.111.599.216.9.118.297.294.605.581.84.285.238.67.349 1.009.348.343 0 .654-.076.944-.175.582-.2 1.085-.503 1.57-.82a.295.295 0 0 0 .093-.096l.002-.004c3.072-5.203 6.823-10.007 11.184-14.204C-4.244 79.18.723 75.59 6.175 72.89v-.002a.314.314 0 0 0 .156-.173l.454-1.252a.323.323 0 0 0-.087-.346c-1.525-1.458-3.222-2.673-5.024-3.74a28.998 28.998 0 0 0-5.71-2.608c-1.994-.653-4.07-1.097-6.166-1.174a10.64 10.64 0 0 0-.784-.02c-.26.002-.521-.005-.783.003-.52.031-1.042.041-1.56.106-1.035.085-2.056.269-3.074.483Z" fill="#281400"/><path opacity=".7" d="M-42.098 97.717c.325-1.84.786-3.63 1.35-5.362-.15 8.157.213 17.117 2.306 20.012 4.142 5.729 28.965-33.852 31.89-38.803 1.808-3.06-2.26-6.953-5.63-9.48 10.69-.14 18.636 7.28 18.636 7.28s-.157.441-.453 1.251c-9.491 4.667-18.38 12.537-25.01 23.014a76.044 76.044 0 0 0-1.064 1.741c-.151.257-.303.514-.453.772a4.89 4.89 0 0 0-.09.16l-.212.373c-.146.26-.29.519-.433.779l-.002.003-.289.534c-.136.253-.268.509-.402.764-.093.181-.188.36-.28.541-.135.265-.265.53-.397.797-.063.131-.13.261-.192.389l-.175.368a56.7 56.7 0 0 0-.388.832l-.165.362c-.067.149-.131.298-.199.447l-.219.496c-.03.07-.061.14-.09.211-.09.212-.179.424-.267.637-.076.179-.148.357-.222.534a51.095 51.095 0 0 0-.493 1.254c-.098.254-.193.507-.286.761l-.07.192a77.731 77.731 0 0 0-.448 1.27 60.32 60.32 0 0 0-.387 1.166 47.83 47.83 0 0 0-.313 1.013c-.017.052-.03.104-.047.157a52.97 52.97 0 0 0-.304 1.053c-.013.046-.028.095-.04.143-.099.358-.194.714-.285 1.072-.039.152-.079.3-.116.453-.065.257-.126.512-.186.769-.038.158-.073.317-.11.475-.061.267-.122.534-.178.804-.026.117-.048.238-.075.357a59.99 59.99 0 0 0-.704 4.105l-.04.299c-.041.313-.08.626-.114.938l-.014.123a55.538 55.538 0 0 0-.26 3.183l-.006.099c-.017.334-.03.664-.041.997l-.005.171a52.188 52.188 0 0 0 .045 4.278 47.488 47.488 0 0 0 1.13 8.202c-3.651 2.957-6.878 2.829-9.213-2.196a36.413 36.413 0 0 1-1.888-5.055c-.59.138-1.227.051-1.487-.374-6.23-10.208-5.492-22.883-1.615-34.361Z" fill="#E8B17E"/><path d="M75.115 126.035c-2.362-14.024-15.005-20.73-15.005-20.73s-.333.333-.943.951c-.149 10.63-3.472 22.095-10.14 32.632-9.212 14.558-22.756 24.113-36.251 27.081-1.114 4.589.393 7.463 5.97 7.416 27.01-.238 58.731-33.327 56.37-47.35Z" fill="#60300F"/><path d="M14.16 172.686a4.24 4.24 0 0 1-1.04-.914c-1.07-1.316-1.293-3.296-.665-5.887a.314.314 0 0 1 .241-.234c14.029-3.083 27.168-12.902 36.05-26.94 6.447-10.188 9.936-21.415 10.092-32.47 0-.081.033-.159.092-.217.61-.62.943-.953.943-.953a.33.33 0 0 1 .386-.055c.129.068 12.819 6.946 15.18 20.97.877 5.206-2.697 13.011-9.809 21.413-10.99 12.985-29.747 26.154-46.874 26.306-1.957.019-3.495-.323-4.597-1.019Zm-1.11-6.444c-.523 2.29-.33 4.016.578 5.131.924 1.14 2.642 1.706 5.105 1.685 16.92-.15 35.49-13.208 46.388-26.081 6.888-8.139 10.502-15.95 9.669-20.899-2.14-12.708-12.956-19.408-14.618-20.368-.143.143-.373.374-.68.686-.18 11.128-3.703 22.421-10.187 32.668-8.93 14.116-22.135 24.01-36.255 27.178Z" fill="#281400"/><path d="M75.105 126.025c-2.362-14.024-15.007-20.73-15.007-20.73s-.333.332-.942.95c-.15 10.631-3.473 22.096-10.142 32.635-7.398 11.692-17.591 20.152-28.307 24.569-1.965 2.369-.8 4.43 10.27 3.933 0 0-4.082 1.974-6.532 4.081-.718.617-.282 2.533.679 2.634 28.207 2.958 52.166-35.098 49.98-48.072Z" fill="#7A421C"/><path d="M74.677 126.084a26.79 26.79 0 0 0-1.82-6.171 28.968 28.968 0 0 0-1.459-2.896 32.77 32.77 0 0 0-1.79-2.721 33.34 33.34 0 0 0-4.398-4.835 33.962 33.962 0 0 0-2.536-2.081 26.156 26.156 0 0 0-2.726-1.798l.387-.055-.941.948.09-.215c-.102 6.121-1.214 12.178-3.127 17.944-1.917 5.769-4.636 11.25-8.008 16.29-3.372 5.04-7.39 9.662-12.006 13.63-4.62 3.959-9.828 7.277-15.502 9.625l.123-.091c-.333.411-.639.872-.698 1.327-.065.448.197.825.638 1.101.443.27.975.449 1.518.578a14.84 14.84 0 0 0 1.672.281c1.13.129 2.277.173 3.424.182 1.146.01 2.294-.022 3.44-.071a.34.34 0 0 1 .352.31.315.315 0 0 1-.178.306v.002a35.103 35.103 0 0 0-4.725 2.595 21.643 21.643 0 0 0-1.628 1.179c-.078.067-.193.145-.24.206a.709.709 0 0 0-.145.225c-.15.35-.121.803.003 1.196.123.388.39.779.731.817 3.625.399 7.318.019 10.792-.938 3.484-.955 6.773-2.466 9.85-4.284a57.433 57.433 0 0 0 8.656-6.299c5.347-4.738 9.956-10.296 13.688-16.382 1.858-3.045 3.501-6.232 4.768-9.563.624-1.668 1.165-3.37 1.517-5.106.344-1.728.544-3.517.278-5.236Zm.854-.118c.308 1.889.108 3.756-.234 5.554-.346 1.803-.883 3.552-1.502 5.263-1.258 3.417-2.89 6.668-4.746 9.778a72.697 72.697 0 0 1-6.259 8.878 66.324 66.324 0 0 1-7.565 7.826c-2.736 2.395-5.685 4.579-8.89 6.355-3.203 1.775-6.652 3.149-10.243 3.971-3.594.822-7.316 1.086-11.015.697-.297-.039-.547-.221-.71-.424a2.105 2.105 0 0 1-.355-.672 2.445 2.445 0 0 1-.12-.727 1.731 1.731 0 0 1 .133-.739 1.02 1.02 0 0 1 .22-.335.917.917 0 0 1 .138-.127l.13-.111a20.987 20.987 0 0 1 1.634-1.239c1.504-1.03 3.068-1.95 4.679-2.817l.001-.002.173.618c-1.155.051-2.315.08-3.476.072a32.861 32.861 0 0 1-3.495-.186 15.46 15.46 0 0 1-1.752-.293c-.58-.142-1.168-.328-1.721-.664-.274-.176-.54-.4-.73-.71a1.585 1.585 0 0 1-.216-1.034c.101-.685.474-1.188.84-1.65a.272.272 0 0 1 .114-.086l.008-.004c5.603-2.318 10.757-5.602 15.329-9.519 4.57-3.929 8.552-8.507 11.893-13.503 3.343-4.995 6.038-10.429 7.935-16.14 1.896-5.709 2.995-11.705 3.095-17.753l.002-.002a.317.317 0 0 1 .09-.216l.943-.952a.327.327 0 0 1 .386-.055l.002.001c1 .552 1.921 1.171 2.827 1.833a35.326 35.326 0 0 1 2.608 2.105 34.081 34.081 0 0 1 4.536 4.914 32.519 32.519 0 0 1 1.858 2.78c.556.965 1.08 1.95 1.527 2.971a27.47 27.47 0 0 1 1.928 6.344Z" fill="#281400"/><path d="M75.101 126.017c-2.361-14.023-15.003-20.728-15.003-20.728s-.333.333-.942.951c-.15 10.629-3.472 22.092-10.14 32.629-3.885 6.141-8.543 11.388-13.64 15.629-.772 3.063.72 4.528 8.618-.148 0 0-16.067 21.199 5.183 10.665 19.358-7.577 27.423-30.1 25.924-38.998Z" fill="#9B4F1C"/><path d="M74.475 126.104a26.597 26.597 0 0 0-1.758-6.142 28.777 28.777 0 0 0-1.428-2.892 31.887 31.887 0 0 0-1.762-2.722 33.388 33.388 0 0 0-4.35-4.857 34.612 34.612 0 0 0-2.516-2.097 26.622 26.622 0 0 0-2.71-1.818l.386-.055-.94.949.09-.216a59.073 59.073 0 0 1-1.905 13.807 66.175 66.175 0 0 1-2.103 6.631 72.942 72.942 0 0 1-2.792 6.363 76.73 76.73 0 0 1-3.423 6.041 70.541 70.541 0 0 1-4.008 5.672 66.164 66.164 0 0 1-9.665 9.979l.105-.165c-.108.451-.194.913-.165 1.341.025.434.18.795.507.951.33.168.8.169 1.25.101a8.021 8.021 0 0 0 1.361-.349c.9-.316 1.778-.717 2.635-1.154.858-.44 1.702-.913 2.533-1.404a.336.336 0 0 1 .453.107.32.32 0 0 1 0 .352l-.013.021a84.977 84.977 0 0 0-3.344 5.41 32.049 32.049 0 0 0-1.4 2.82c-.404.952-.753 1.952-.82 2.91-.03.473.044.925.26 1.225.111.147.26.262.443.354.181.093.41.142.64.179.468.068.984.032 1.496-.045a12.566 12.566 0 0 0 1.534-.332c2.045-.563 4.006-1.463 5.973-2.319l.022-.01c.482-.185.965-.375 1.439-.581.24-.097.47-.211.701-.33l.692-.348c.23-.117.462-.23.688-.352l.67-.383c.445-.259.9-.501 1.328-.789a34.962 34.962 0 0 0 4.923-3.686c3.063-2.72 5.705-5.878 7.883-9.321a50.185 50.185 0 0 0 5.28-10.973 40.375 40.375 0 0 0 1.562-5.88c.334-1.991.522-4.037.248-5.993Zm1.25-.175c.362 2.182.208 4.329-.09 6.427-.319 2.096-.847 4.141-1.505 6.136-1.343 3.984-3.28 7.738-5.62 11.203-2.36 3.453-5.19 6.589-8.427 9.242-1.618 1.325-3.327 2.545-5.143 3.594-.441.28-.913.514-1.375.765l-.691.37c-.235.117-.475.224-.712.337-.939.468-1.923.838-2.871 1.287l.022-.009c-1.903 1.031-3.876 1.949-5.988 2.613a13.58 13.58 0 0 1-1.63.404c-.561.098-1.142.163-1.76.095-.31-.042-.629-.101-.945-.247a2.263 2.263 0 0 1-.839-.654c-.442-.597-.511-1.284-.493-1.873.073-1.196.464-2.245.88-3.258.425-1.012.944-1.967 1.485-2.904a37.25 37.25 0 0 1 1.749-2.725 37.2 37.2 0 0 1 1.952-2.577l.44.479c-.841.495-1.693.976-2.57 1.423-.874.448-1.774.858-2.717 1.191-.475.161-.963.3-1.481.377-.258.038-.526.06-.804.043a2.066 2.066 0 0 1-.85-.214 1.512 1.512 0 0 1-.661-.664 2.163 2.163 0 0 1-.21-.834c-.037-.547.064-1.05.18-1.54a.303.303 0 0 1 .1-.162l.005-.002a65.269 65.269 0 0 0 9.57-9.882 70.12 70.12 0 0 0 3.971-5.621 76.235 76.235 0 0 0 3.392-5.99 73.014 73.014 0 0 0 2.765-6.303c.81-2.15 1.5-4.342 2.083-6.568a58.511 58.511 0 0 0 1.886-13.657l-.001-.003a.313.313 0 0 1 .09-.215l.943-.953a.33.33 0 0 1 .386-.055 26.827 26.827 0 0 1 2.84 1.812c.907.653 1.784 1.35 2.624 2.09a34.194 34.194 0 0 1 4.584 4.891 33.7 33.7 0 0 1 1.888 2.777 30.48 30.48 0 0 1 1.554 2.972 27.38 27.38 0 0 1 1.993 6.382Z" fill="#281400"/><path d="M76.162 123.027c-3.145-12.66-16.044-17.744-16.044-17.744s-.332.332-.94.95c-.15 10.624-3.47 22.083-10.133 32.615-.38.601-.77 1.191-1.165 1.777-.533 3.613.944 5.647 9.444-1.622 0 0-10.558 25.138 12.613 1.099 3.629-3.765 7.531-10.592 6.225-17.075Z" fill="#A55D2B"/><path d="M75.815 123.095a22.05 22.05 0 0 0-2.402-5.508 29.429 29.429 0 0 0-3.625-4.823c-1.377-1.481-2.918-2.819-4.557-4.029-1.645-1.191-3.403-2.285-5.228-3.153l.352-.071-.94.948.09-.215c-.103 6.188-1.237 12.31-3.188 18.132-1.954 5.825-4.73 11.354-8.163 16.432l.05-.13c-.075.544-.127 1.095-.066 1.615.051.517.24 1.006.62 1.17.382.185.937.1 1.44-.062.51-.163 1.01-.406 1.494-.672.971-.537 1.892-1.182 2.79-1.856a57.482 57.482 0 0 0 2.621-2.118.332.332 0 0 1 .465.04.32.32 0 0 1 .058.338c-.663 1.893-1.326 3.801-1.828 5.735-.243.969-.445 1.952-.497 2.929-.024.485-.01.976.106 1.411.11.446.35.782.715.902.373.129.86.053 1.312-.086a7.56 7.56 0 0 0 1.349-.587c.877-.47 1.708-1.048 2.518-1.647 1.612-1.214 3.132-2.555 4.617-3.929a107.533 107.533 0 0 0 4.306-4.276c1.38-1.469 2.523-3.149 3.5-4.904.938-1.78 1.673-3.673 2.077-5.637.381-1.963.427-4.011.014-5.949Zm.698-.135c.362 2.096.22 4.194-.252 6.195-.504 1.993-1.297 3.889-2.285 5.666-.508.88-1.032 1.755-1.636 2.572-.285.421-.614.811-.918 1.219-.327.388-.64.791-.991 1.162-1.382 1.492-2.813 2.923-4.265 4.344-1.456 1.416-2.947 2.799-4.55 4.072-.803.633-1.628 1.244-2.535 1.761-.45.263-.923.496-1.438.673-.51.164-1.087.31-1.722.126a1.654 1.654 0 0 1-.801-.554c-.205-.253-.318-.539-.4-.813-.157-.557-.175-1.1-.161-1.631.039-1.06.23-2.08.46-3.082a30.565 30.565 0 0 1 1.996-5.797l.523.379a56.149 56.149 0 0 1-2.654 2.142c-.913.685-1.85 1.345-2.865 1.907a9.164 9.164 0 0 1-1.613.721 4.167 4.167 0 0 1-.911.192c-.321.022-.678-.005-1.015-.165a1.607 1.607 0 0 1-.751-.766 2.885 2.885 0 0 1-.249-.932c-.069-.615-.01-1.202.069-1.779a.296.296 0 0 1 .047-.126l.003-.004c3.404-5.033 6.154-10.512 8.089-16.281 1.932-5.766 3.053-11.824 3.155-17.939l.002-.001a.317.317 0 0 1 .09-.216l.942-.952a.325.325 0 0 1 .353-.071c1.983.756 3.82 1.773 5.567 2.949a29.124 29.124 0 0 1 4.835 4.06c1.453 1.529 2.752 3.223 3.726 5.092.13.23.244.466.356.703.111.237.23.471.336.713.196.486.411.963.575 1.461.37.977.644 1.983.888 3Z" fill="#281400"/><path d="M63.826 137.535c-.459.304-.945.518-1.437.716a12.8 12.8 0 0 1-1.511.48l-.025.006a.34.34 0 0 1-.405-.238l-.005-.018a12.875 12.875 0 0 1-.195-1.149 6.724 6.724 0 0 1-.047-1.182c.218.349.377.711.526 1.075.143.365.269.735.378 1.108l-.432-.249c.502-.163 1.017-.29 1.54-.393.525-.091 1.055-.168 1.613-.156ZM49.355 152.36c.2.681.332 1.367.442 2.053.061.342.1.686.146 1.03.043.345.076.688.108 1.034l-.514-.285c.316-.163.633-.322.956-.475.326-.145.644-.304.976-.438.327-.142.661-.272.997-.398.339-.119.678-.243 1.03-.335-.277.232-.57.435-.864.641-.297.198-.595.393-.9.576-.3.191-.613.358-.92.539-.312.173-.626.339-.941.502l-.003.001a.354.354 0 0 1-.51-.286 24.563 24.563 0 0 1-.067-1.035c-.012-.346-.03-.691-.028-1.039-.008-.692.007-1.388.092-2.085ZM63.322 120.244c.437.57.814 1.165 1.169 1.77.182.301.346.61.517.917.167.306.327.619.483.931l-.58-.083c.232-.266.467-.53.706-.792.247-.253.482-.517.738-.763.25-.252.51-.495.77-.735.268-.235.534-.471.827-.688-.171.318-.367.614-.56.915-.2.295-.402.584-.616.867-.206.287-.433.559-.648.839-.222.274-.45.543-.682.812l-.001.001a.35.35 0 0 1-.578-.084 24.874 24.874 0 0 1-.444-.95c-.14-.321-.285-.638-.412-.966a15.886 15.886 0 0 1-.69-1.991ZM33.567 161.183a18.242 18.242 0 0 1-.569 2.091c-.109.344-.23.679-.352 1.017-.119.338-.259.667-.387 1.004l-.32-.477c.792.019 1.583.062 2.374.136.396.036.791.082 1.187.137.395.059.791.116 1.184.209-.396.067-.79.102-1.186.138-.395.031-.79.053-1.188.067-.79.029-1.581.023-2.373-.004l-.008.001a.348.348 0 0 1-.337-.349c0-.044.01-.088.027-.128.142-.328.274-.662.427-.986.151-.325.298-.652.462-.971.321-.641.66-1.275 1.059-1.885Z" fill="#E8B17E"/><path opacity=".7" d="M57.085 160.747a39.604 39.604 0 0 0 4.293-3.539c-7.352 3.655-15.657 7.191-19.193 6.54-6.995-1.288 18.29-40.896 21.532-45.687 2.002-2.962 7.297-.949 11.049 1.022-4.484-9.766-14.66-13.778-14.66-13.778s-.333.332-.942.951c-.15 10.629-3.472 22.094-10.14 32.631-.226.357-.456.707-.687 1.059-.145.221-.292.44-.437.658l-.507.744-.107.152-.247.352-.521.729-.003.004-.36.492c-.172.233-.348.463-.522.695l-.371.488c-.182.236-.368.469-.554.703-.091.114-.18.23-.271.342-.087.107-.173.214-.259.318a54.707 54.707 0 0 1-.847 1.016l-.321.374c-.12.137-.237.276-.356.413-.05.058-.101.116-.154.173-.153.173-.308.345-.463.517-.13.146-.261.288-.39.431a44.094 44.094 0 0 1-.928.989c-.188.199-.377.394-.568.588l-.145.147a9.94 9.94 0 0 0-.174.176c-.196.197-.393.392-.589.586a55.697 55.697 0 0 1-.928.89l-.164.156c-.26.244-.523.486-.786.721-.04.038-.082.073-.122.111-.273.246-.55.489-.827.73-.037.032-.075.066-.113.097-.283.245-.566.485-.852.722-.121.101-.239.201-.362.301-.205.169-.411.336-.62.501l-.383.305c-.217.17-.433.34-.654.508-.096.074-.196.146-.293.222a60.679 60.679 0 0 1-2.416 1.735c-.081.054-.163.111-.246.168-.255.171-.51.341-.767.507l-.255.165c-.267.172-.535.342-.804.508-.035.023-.07.043-.106.065a55.499 55.499 0 0 1-3.759 2.125c-.051.026-.1.053-.152.078a52.467 52.467 0 0 1-3.91 1.805 47.912 47.912 0 0 1-7.946 2.513c-1.114 4.589.393 7.463 5.97 7.415a36.691 36.691 0 0 0 5.412-.466c.128.594.483 1.136.98 1.188 11.972 1.253 23.18-4.885 31.945-13.356Z" fill="#E8B17E"/><path d="M7.648 72.285c1.057.311 2.13.637 3.214.978 3.535 7.945 10.103 15.584 19.045 21.236 8.928 5.645 18.63 8.301 27.31 8.098.752.808 1.485 1.616 2.2 2.414.438.491.923.813 1.432.791.002.001.003-.001.006-.002.405 2.119.714 4.348.93 6.702.11.958-.431 1.746-1.337 1.899l-.036.006c-1.13.192-1.964.918-2.246 1.996a6.362 6.362 0 0 1-.133.449c-.855 2.581-3.112 4.171-6.53 4.586-1.472.183-2.498 1.082-2.846 2.438-.031.117-.066.232-.106.346-.819 2.338-3.588 3.26-7.726 2.77-2.304-.267-4.01.747-4.584 2.578-.027.09-.06.18-.097.264-.903 2.16-4.281 2.475-9.062 1.148-5.02-1.386-9.902-1.475-14.17-.334-3.434.932-8.591-2.42-9.027-5.869-.546-4.153-2.538-8.394-5.779-12.23-3.087-3.642-4.164-6.727-2.638-8.431.064-.071.128-.138.198-.201 1.406-1.305 1.59-3.281.36-5.248-2.216-3.527-2.575-6.423-.815-8.167.084-.083.173-.167.267-.244 1.075-.9 1.445-2.208.978-3.62-1.094-3.264-.627-5.986 1.334-7.865.116-.11.234-.217.357-.32.844-.707 1.144-1.755.836-2.849a.271.271 0 0 0-.01-.035c-.297-1.05.307-2.026 1.39-2.392A68.612 68.612 0 0 1 6.32 71.31c.002.006.003.013.006.017.192.47.691.77 1.323.957Z" fill="#E8B17E"/><path d="m7.562 72.594 3.208.977-.207-.183c1.946 4.422 4.685 8.5 7.933 12.114 3.251 3.62 7.003 6.792 11.091 9.463 4.093 2.659 8.55 4.793 13.23 6.217 4.665 1.433 9.593 2.144 14.417 1.736l-.254-.108 1.665 1.827.416.458c.132.146.292.324.462.47.338.295.802.579 1.349.556l.005.001-.345-.271c.252 1.324.463 2.653.633 3.987a71.4 71.4 0 0 1 .23 2.006c.029.326.08.699.076.965a1.432 1.432 0 0 1-.254.775c-.158.215-.384.38-.647.458-.066.024-.13.031-.204.05-.09.017-.182.035-.27.055-.18.046-.36.098-.531.177-.694.284-1.27.85-1.565 1.538-.073.167-.133.36-.178.516-.05.152-.084.309-.144.455a5.659 5.659 0 0 1-1.55 2.354c-.94.857-2.157 1.393-3.435 1.679-.32.065-.643.132-.971.171l-.518.075a4.271 4.271 0 0 0-.542.131 3.51 3.51 0 0 0-1.805 1.273c-.22.302-.389.64-.506.989l-.148.482c-.04.148-.115.279-.17.421-.251.548-.667.997-1.173 1.334-.506.339-1.1.565-1.721.709a9.016 9.016 0 0 1-1.934.223 14.383 14.383 0 0 1-1.984-.106c-.319-.031-.695-.09-1.065-.09a5.712 5.712 0 0 0-1.113.079 5.07 5.07 0 0 0-1.083.324c-.347.16-.674.36-.973.602a4.425 4.425 0 0 0-.765.851c-.208.321-.38.661-.505 1.021-.196.541-.517.942-.996 1.225-.475.281-1.069.429-1.686.49-.617.062-1.262.046-1.906-.009a17.531 17.531 0 0 1-1.945-.31c-.648-.133-1.29-.314-1.934-.492a35.54 35.54 0 0 0-2.045-.512 29.599 29.599 0 0 0-4.169-.594c-2.802-.19-5.637.052-8.333.802l-.355.224.352-.223c-.779.214-1.673.179-2.545-.028a8.665 8.665 0 0 1-2.52-1.067 8.63 8.63 0 0 1-2.087-1.792 6.168 6.168 0 0 1-.745-1.118c-.11-.193-.167-.402-.257-.603-.044-.102-.052-.204-.08-.306l-.107-.441.033.123c-.415-2.708-1.4-5.304-2.74-7.678a28.378 28.378 0 0 0-2.258-3.409c-.41-.54-.864-1.066-1.288-1.581a22.639 22.639 0 0 1-1.212-1.584c-.745-1.088-1.407-2.255-1.706-3.493-.143-.616-.17-1.25.015-1.814l.07-.21c.03-.068.069-.13.102-.196.06-.136.155-.249.243-.367.041-.061.09-.116.145-.169l.168-.172c.126-.122.246-.252.353-.391.441-.549.73-1.231.804-1.939.087-.706-.045-1.426-.288-2.084a6.082 6.082 0 0 0-.46-.948l-.517-.863a15.911 15.911 0 0 1-.875-1.772c-.475-1.207-.789-2.527-.489-3.746a3.46 3.46 0 0 1 .888-1.596c.11-.114.219-.206.348-.324.133-.116.257-.24.373-.371.232-.266.425-.567.564-.894.284-.654.331-1.399.183-2.092-.034-.174-.089-.348-.138-.51l-.144-.47c-.084-.315-.17-.63-.228-.95-.252-1.274-.258-2.599.154-3.802.204-.6.505-1.16.892-1.662.102-.122.198-.245.304-.365l.332-.342.36-.321c.134-.118.264-.243.375-.384a2.85 2.85 0 0 0 .635-2.021c-.015-.358-.153-.738-.18-.99-.035-.286.021-.568.135-.825.126-.251.308-.478.546-.645a1.96 1.96 0 0 1 .378-.218c.132-.06.282-.109.444-.167a63.505 63.505 0 0 1 5.705-1.738l.02-.006-.393-.195c.062.162.168.324.286.454.12.13.254.24.394.33.281.188.577.302.87.39Zm.171-.617a2.725 2.725 0 0 1-.693-.302 1.346 1.346 0 0 1-.26-.217.784.784 0 0 1-.165-.261l-.104-.276-.287.078-.02.006a71.122 71.122 0 0 0-3.84 1.165c-.634.211-1.265.432-1.89.658-.148.055-.316.112-.486.188-.168.078-.33.17-.476.283a2.28 2.28 0 0 0-.707.856 2.084 2.084 0 0 0-.172 1.11c.013.185.082.389.112.52.039.149.06.3.075.45a2.334 2.334 0 0 1-.818 1.992l-.376.341-.357.368c-.113.128-.22.263-.327.395a6.181 6.181 0 0 0-.965 1.803c-.443 1.304-.43 2.72-.164 4.052.06.338.15.665.24.993l.151.487c.048.156.094.301.125.458.131.608.09 1.244-.152 1.8-.12.28-.284.539-.484.77-.1.115-.21.224-.324.325-.114.107-.257.227-.375.349a3.912 3.912 0 0 0-1.006 1.813c-.168.68-.166 1.388-.062 2.069.104.683.305 1.343.55 1.982.26.634.56 1.249.894 1.844l.514.872c.17.275.297.569.414.863.214.593.322 1.226.244 1.833a3.194 3.194 0 0 1-.703 1.658 2.984 2.984 0 0 1-.308.339l-.18.181a1.436 1.436 0 0 0-.179.202c-.111.142-.226.285-.304.451-.043.081-.09.159-.125.241l-.09.259c-.229.694-.193 1.433-.041 2.116.32 1.369 1.011 2.586 1.773 3.719.391.563.797 1.114 1.236 1.638.432.531.847 1.037 1.247 1.577a25.318 25.318 0 0 1 2.135 3.36 22.894 22.894 0 0 1 1.551 3.631c.397 1.25.678 2.528.828 3.813l.033.124c-.068-.266-.02-.073-.034-.132l.001.003.002.007.003.012.004.027.01.05.019.102.039.203c.03.135.043.277.09.404.095.252.166.52.286.759.229.488.51.945.834 1.365a9.915 9.915 0 0 0 2.313 2.135 9.942 9.942 0 0 0 2.87 1.334c1.032.281 2.16.398 3.275.115l-.003.001c2.543-.632 5.205-.832 7.853-.633a30.85 30.85 0 0 1 3.955.538c.656.13 1.307.285 1.955.453.68.174 1.368.333 2.065.454 1.393.242 2.827.386 4.293.188.726-.106 1.476-.309 2.145-.743.326-.225.642-.485.878-.819l.176-.249.135-.269c.096-.174.158-.379.215-.545.084-.278.202-.542.346-.791.153-.242.34-.46.55-.653.218-.185.461-.344.725-.474.268-.12.55-.22.849-.278.299-.058.605-.093.917-.091.314-.009.615.032.979.059.696.067 1.399.084 2.104.059a9.953 9.953 0 0 0 2.105-.272c.692-.172 1.379-.437 1.983-.854.604-.412 1.119-.987 1.419-1.662.065-.172.15-.336.197-.514l.14-.479a2.96 2.96 0 0 1 .395-.794c.34-.481.84-.836 1.417-1.022a3.35 3.35 0 0 1 .444-.113l.49-.077a12.99 12.99 0 0 0 1.029-.196c1.355-.323 2.684-.91 3.726-1.87a6.22 6.22 0 0 0 1.29-1.662c.165-.31.305-.634.42-.964.062-.163.102-.335.154-.502a3.77 3.77 0 0 1 .144-.432 2.296 2.296 0 0 1 1.226-1.217c.137-.063.282-.105.43-.145l.227-.048c.09-.019.197-.037.288-.071.384-.115.73-.366.963-.689a2.03 2.03 0 0 0 .37-1.106c.002-.409-.05-.707-.078-1.053a67.82 67.82 0 0 0-.86-6.049l-.058-.302-.287.031-.007.002c-.287.015-.6-.146-.876-.389-.266-.237-.54-.575-.822-.872l-1.67-1.835-.08-.101-.173-.007a56.575 56.575 0 0 1-14.013-2.379c-4.547-1.393-8.919-3.39-12.998-5.886-4.071-2.506-7.833-5.543-11.078-9.056-3.24-3.512-5.983-7.49-7.954-11.815L11.1 73l-.14-.043-3.227-.981Z" fill="#281400"/><path opacity=".5" d="M7.659 72.277c1.057.31 2.129.637 3.213.978 3.535 7.943 10.1 15.58 19.04 21.233 8.926 5.643 18.624 8.3 27.303 8.097.751.808 1.484 1.616 2.198 2.414.439.49.924.813 1.433.79.002.002.003 0 .006-.001.404 2.118.714 4.347.929 6.7.11.958-.43 1.746-1.336 1.899l-.036.006c-1.13.192-1.964.918-2.245 1.995a6.235 6.235 0 0 1-.133.45c-.855 2.58-3.111 4.169-6.527 4.584-1.473.183-2.498 1.082-2.847 2.438-.03.117-.065.232-.105.346-.819 2.338-3.587 3.259-7.724 2.769-2.304-.266-4.009.747-4.583 2.577-.027.091-.06.181-.097.265-.899 2.153-4.264 2.471-9.023 1.157.001-.005-.002-.009-.001-.014-.005-.027-.01-.054-.011-.081a84.143 84.143 0 0 0 22.557-18.014c.75-.848 1.518-1.807 1.53-2.945.017-1.647-1.526-2.905-3-3.714-7.494-4.11-16.67-3.643-24.48-7.095-9.061-4.003-15.217-12.913-18.144-22.258a54.884 54.884 0 0 1-1.295-4.975c.69-.207 1.372-.391 2.05-.57a.018.018 0 0 1 .002.012c.195.47.695.77 1.325.957Z" fill="#E8B17E"/><path opacity=".5" d="M44.722 114.074c-1.004-.006-1.988.084-2.969.186-.98.113-1.953.26-2.922.436l.391.276c-.06-.336-.146-.668-.216-1.001-.07-.334-.161-.664-.243-.997-.09-.331-.175-.663-.279-.991a16.273 16.273 0 0 0-.324-.983c.002.343.017.686.042 1.028.02.341.057.679.088 1.02.042.339.072.676.124 1.013.051.338.088.676.15 1.01a.344.344 0 0 0 .385.277l.006-.001a44.15 44.15 0 0 0 2.908-.513c.962-.209 1.921-.435 2.859-.76ZM25.525 107.669c-1.107-.086-2.206-.071-3.303-.045a55.008 55.008 0 0 0-3.277.208l.36.268c-.08-.369-.184-.734-.273-1.101-.09-.367-.2-.731-.302-1.097-.11-.364-.214-.729-.335-1.089a18.475 18.475 0 0 0-.382-1.08c.022.38.056.758.102 1.134.04.377.095.751.148 1.126.061.372.11.748.182 1.118.07.371.128.746.209 1.115.036.165.189.277.354.268l.006-.001a56.49 56.49 0 0 0 3.268-.284c1.085-.139 2.17-.291 3.243-.54ZM5.106 85.081c-.044.49-.03.971-.005 1.453.03.478.08.956.147 1.43a.33.33 0 0 0 .23.268l.018.006a20.08 20.08 0 0 0 1.847.48c.625.122 1.254.23 1.908.25-.569-.33-1.16-.573-1.759-.802-.6-.217-1.206-.413-1.82-.573l.247.275c-.091-.47-.2-.939-.33-1.405-.135-.463-.28-.928-.483-1.382ZM8.389 102.152a14.29 14.29 0 0 0-1.941.195c-.32.045-.635.114-.95.173-.316.063-.628.133-.94.207l.436.359c.017-.317.03-.638.034-.956-.002-.319.008-.638-.005-.959a13.294 13.294 0 0 0-.164-1.93 13.35 13.35 0 0 0-.377 1.887c-.05.315-.074.634-.111.95-.03.317-.052.634-.072.953a.352.352 0 0 0 .438.358c.31-.076.621-.156.93-.244.308-.093.617-.176.92-.283a13.303 13.303 0 0 0 1.802-.71ZM28.757 124.216c-.769.002-1.524.066-2.274.154-.376.039-.749.094-1.12.148-.375.05-.743.122-1.117.183l.415.328c-.034-.81-.093-1.62-.182-2.428a30.522 30.522 0 0 0-.159-1.211c-.069-.404-.133-.807-.232-1.211-.06.406-.086.812-.116 1.219-.022.406-.04.81-.045 1.217-.013.812.008 1.621.049 2.433v.008c.01.185.168.329.355.324l.06-.006c.369-.078.74-.14 1.106-.227.366-.083.734-.164 1.097-.26.726-.195 1.452-.401 2.163-.671ZM7.362 113.823c-.162.521-.228 1.044-.28 1.566a12.98 12.98 0 0 0-.032 1.57l.001.024a.333.333 0 0 0 .341.315h.02c.386-.03.772-.075 1.156-.14.383-.07.766-.151 1.145-.288a7.499 7.499 0 0 0-1.178-.195c-.39-.033-.78-.046-1.169-.045l.36.341c.016-.524-.01-1.048-.058-1.571-.06-.525-.134-1.05-.306-1.577ZM28.04 152.753a7.848 7.848 0 0 0-.234-.791c-.042-.13-.093-.259-.14-.386-.048-.13-.102-.254-.155-.382l-.085.165c.29-.061.578-.13.864-.209a7.62 7.62 0 0 0 .846-.284c-.152.004-.301.018-.45.031a13.03 13.03 0 0 0-1.317.22h-.004a.115.115 0 0 0-.088.144c.001.007.005.014.006.02.056.125.108.253.168.377.06.125.116.25.18.371.124.245.255.488.409.724ZM53.536 167.792c-.203-.899-.505-1.76-.833-2.614l-.182.227c.89.124 1.785.224 2.693.221-.873-.262-1.761-.424-2.65-.559a.166.166 0 0 0-.181.227c.33.85.694 1.692 1.153 2.498ZM35.667 130.588c.606-.676 1.125-1.41 1.618-2.161l-.296-.014c.446.779.912 1.547 1.472 2.266-.323-.845-.736-1.642-1.171-2.425a.173.173 0 0 0-.297-.014c-.487.752-.951 1.52-1.326 2.348ZM52.183 157.326a16.39 16.39 0 0 0-1.02-1.901l-.15.25c1.03.096 2.063.155 3.102.081-1.023-.239-2.052-.343-3.085-.412l-.005-.001a.16.16 0 0 0-.171.152.17.17 0 0 0 .027.098c.401.601.822 1.185 1.302 1.733ZM35.34 166.832c-.507-.526-1.054-1-1.618-1.451l-.05.289c.99-.262 1.972-.56 2.911-.989-1.034.125-2.026.381-3.01.671l-.007.001a.16.16 0 0 0-.107.204.172.172 0 0 0 .061.083c.58.43 1.18.838 1.82 1.192ZM15.39 148.77a16.567 16.567 0 0 0-1.197-1.801l-.123.264c1.031-.003 2.063-.039 3.088-.214-1.039-.141-2.07-.147-3.104-.117h-.005a.16.16 0 0 0-.156.169c.002.036.015.07.037.095.453.559.93 1.1 1.46 1.604ZM44.35 108.414a15.834 15.834 0 0 0 1.545-1.447l-.288-.079c.218 1.002.467 1.998.855 2.966-.075-1.031-.284-2.035-.527-3.032l-.001-.006a.171.171 0 0 0-.2-.126.161.161 0 0 0-.087.052 15.018 15.018 0 0 0-1.297 1.672ZM36.522 152.587c.056-.675.004-1.341-.073-2.003l-.2.184c.651.117 1.304.209 1.975.202-.627-.254-1.27-.409-1.92-.538a.167.167 0 0 0-.2.132.178.178 0 0 0 0 .052c.087.663.198 1.322.418 1.971ZM35.057 116.362c.73-.777 1.312-1.642 1.86-2.529l-.435.036c.717.763 1.46 1.499 2.328 2.125-.553-.909-1.227-1.708-1.928-2.482a.276.276 0 0 0-.436.034c-.536.895-1.035 1.812-1.389 2.816ZM47.322 160.085c.043-.517.003-1.029-.057-1.537l-.154.141c.498.09 1.002.163 1.518.156-.482-.197-.976-.315-1.474-.414a.13.13 0 0 0-.153.101.083.083 0 0 0 0 .039c.065.509.15 1.015.32 1.514ZM13.655 164.888c.11-.815.144-1.627.167-2.442.014-.814.007-1.629-.028-2.443l-.218.246c.285-.03.564-.077.848-.116.282-.038.564-.091.846-.137.279-.052.561-.1.84-.164.28-.057.558-.124.835-.198a13.913 13.913 0 0 0-.865-.016c-.287.001-.574.012-.86.02-.287.016-.574.025-.857.048-.285.023-.57.037-.855.068a.24.24 0 0 0-.218.241V160c.002.814.031 1.628.084 2.443.064.816.133 1.631.281 2.445ZM44.041 143.162c-.457-.21-.924-.363-1.394-.505a19.251 19.251 0 0 0-1.417-.353.32.32 0 0 0-.328.124l-.01.015a18.743 18.743 0 0 0-1.007 1.568c-.302.545-.592 1.098-.805 1.703.488-.42.896-.894 1.292-1.374.385-.489.755-.988 1.089-1.511l-.34.138c.481.075.963.134 1.448.172.487.035.977.057 1.472.023ZM27.784 172.8c-.536-.158-1.069-.218-1.601-.266a13.222 13.222 0 0 0-1.592-.02l-.025.001a.316.316 0 0 0-.302.34l.002.019c.053.381.119.762.208 1.142.094.377.198.756.36 1.129.085-.391.111-.779.128-1.165a11.98 11.98 0 0 0-.021-1.155l-.325.36c.53.012 1.061-.018 1.588-.069.529-.066 1.056-.142 1.58-.316Z" fill="#E8B17E"/></svg>