<svg width="323" height="507" fill="none" xmlns="http://www.w3.org/2000/svg"><path fill="#30D4FE" d="M0 41.211 134.451.001l43.958 143.414-134.45 41.21z"/><path d="M79.519 172.679 0 41.211l23.424-7.18 53.902 92.254 3.825-1.172 9.482-32.192 26.371 21.202 4.303-1.318-12.79-104.856L134.331.037l10.68 152.568-22.468 6.887-26.049-47.449 6.927 53.31-23.902 7.326Z" fill="#FC7387"/><path fill="#8900FA" d="m147.294 114 137.327 30.276-32.294 146.482L115 260.482z"/><path d="m178.705 175.894 11.557-52.421 45.898 10.119-11.557 52.421-45.898-10.119ZM158.183 268.979l10.477-47.522 45.898 10.118-10.477 47.522-45.898-10.118Z" fill="#0A0070"/><path fill="#273CFD" d="M26 269.721 161.471 232l40.236 144.503-135.471 37.72z"/><path fill="#FC7387" d="m186.673 325 135.87 36.256-38.672 144.929-135.87-36.256z"/><path d="M100.821 337.121 26 269.721l37.57-10.461 44.965 44.053 18.617-61.757 34.199-9.522-29.221 96.369 17.168 61.655-31.309 8.718-17.168-61.655Z" fill="#30D4FE"/><path d="m265.285 369.782-22.706-6.059-2.449 9.179-22.222-5.93 8.379-31.401 8.695 2.32 60.388 16.114-4.899 18.357-11.473 42.996-38.687 30.559-3.996 14.976-23.188-6.188 6.961-26.087 36.56-26.469 8.637-32.367ZM205.134 484.657l4.512-16.908 23.189 6.187-4.512 16.909-23.189-6.188Z" fill="#0A0070"/></svg>